<svg viewBox="0 0 8.47 8.47" xmlns="http://www.w3.org/2000/svg" fill="none">
  <path d="M4 .93H1.62a2.26 2.26 0 0 0-.06.24.36.36 0 0 1-.02.06v.07l-.03.08v.07l-.04.08a18.35 18.35 0 0 1-.05.2v.07l-.02.05-.02.07-.02.08v.06a.95.95 0 0 1-.04.13.1.1 0 0 1 0 .03l-.02.05-.02.08a.92.92 0 0 0-.02.12.5.5 0 0 0-.03.1v.04a.48.48 0 0 0-.03.1l-.02.07-.02.08a.41.41 0 0 0 0 .07.58.58 0 0 1-.03.07.3.3 0 0 0 0 .06v.02l-.02.02a.06.06 0 0 1 0 .02l-.02.06-.02.08-.03.12a8.9 8.9 0 0 1-.04.18 4.2 4.2 0 0 1-.1.43l-.02.07a.47.47 0 0 1-.02.06.76.76 0 0 0 0 .06l-.03.07v.06a.55.55 0 0 1-.04.1v.08l-.03.06v.06l-.02.05v.03a.4.4 0 0 1-.03.08v.04l-.02.04v.08a3.22 3.22 0 0 1-.09.32l-.02.08v.07a10.42 10.42 0 0 0-.05.15v.05a.35.35 0 0 1-.02.06L.5 5.7a12.89 12.89 0 0 1 0 .06l-.03.08v.05l-.03.08v.07l-.02.05v.05l-.03.06-.02.08-.02.08-.02.09a7.03 7.03 0 0 0-.1.47l-.02.07a2.73 2.73 0 0 1-.06.25 1.41 1.41 0 0 1-.05.22l-.02.04c0 .04 0 .04.2.04a366.78 366.78 0 0 1 .7 0h5.87a.25.25 0 0 0 .02-.04l.02-.1.03-.1a6.02 6.02 0 0 1 .06-.3L7 6.95a2.62 2.62 0 0 0 .03-.14l.01-.04.01-.06.02-.04a1.3 1.3 0 0 1 .03-.16 1.78 1.78 0 0 1 .05-.2l.02-.07.01-.07.01-.03.01-.06a6.33 6.33 0 0 1 .06-.25.67.67 0 0 0 .02-.08l.01-.05.02-.06a1 1 0 0 1 .02-.08l.02-.12a2.57 2.57 0 0 1 .03-.12l.02-.07v-.06h.01l.02-.05a2.48 2.48 0 0 1 .04-.17l.01-.1.03-.08a5.38 5.38 0 0 0 .05-.22l.01-.07.01-.04a.49.49 0 0 0 .02-.08l.04-.16.02-.06.02-.1.01-.06.02-.07.04-.16.02-.08.01-.07.02-.07.01-.05a12.13 12.13 0 0 0 .07-.27V3.2a.37.37 0 0 0 .02-.1l.02-.05V3l.02-.04.01-.07a4.19 4.19 0 0 1 .11-.46l.02-.05V2.3a.5.5 0 0 0 .02-.06.92.92 0 0 1 .03-.12l.01-.06A.7.7 0 0 0 8.15 2v-.07l.02-.03a.85.85 0 0 1 .04-.16l.01-.07.02-.07v-.04a.64.64 0 0 0 .03-.1v-.03l.01-.02.01-.03.02-.08a.96.96 0 0 0 .03-.12v-.03l.03-.07c.04-.15.06-.15-.17-.15zM2.3.98h2.87c3.16 0 3.17 0 3.17.02l-.02.06a10.41 10.41 0 0 0-.06.28l-.02.08v.06l-.02.03-.02.07a.97.97 0 0 0-.03.14l-.02.08a2.83 2.83 0 0 1-.05.23v.05a.87.87 0 0 0-.05.14v.05a.54.54 0 0 1-.04.1.37.37 0 0 1 0 .08l-.03.06v.04l-.02.05c0 .03-.02.04-.03.04l-.5-.02h-.58c-.23 0-.23 0-.24-.03l-.03-.02v-.01l-.03-.01a.8.8 0 0 0-.13-.05.7.7 0 0 0-.08 0 .67.67 0 0 1-.17-.03.4.4 0 0 1 0-.12v-.08a.1.1 0 0 0 0-.04.04.04 0 0 1 0-.03v-.21a3.07 3.07 0 0 0 0-.22c-.03-.01.01-.03.1-.03l.04-.02.04-.02a.1.1 0 0 0 .04-.02l.02-.02c.01-.01.02-.04.01-.05H6.4l-.03.02-.03.02a.15.15 0 0 1-.05.02.53.53 0 0 0-.04.02H6.2c-.08 0-.08 0-.08.13v.12c-.03 0-.02.02 0 .02v.27c-.03.02-.03.05 0 .05.02 0 .01.07-.02.1s-.03.05 0 .05l.02.03c.01 0 .02.05.01.06-.02.03 0 .1.02.1.03-.01.07-.01.07 0 0 0 0 .02-.02.02h-.14v-.06s0-.02-.02-.03c-.02-.02-.03-.03-.02-.04a.03.03 0 0 0 0-.02 6.14 6.14 0 0 1-.02-.6c.02-.04 0-.1 0-.1-.03 0-.04 0-.03-.02.01-.01.01-.04-.04-.04-.02-.01-.02-.03 0-.04.03-.03.01-.05-.03-.04a.6.6 0 0 1-.19 0 .4.4 0 0 1-.05 0c-.03-.02-.04 0-.03.03-.03-.01-.03-.02-.03-.03 0-.01 0-.02-.02-.02-.08-.04-.04-.05.1-.03h.2l.01-.02c0 .02.02.03.03.02a.03.03 0 0 0 0-.01c0-.02.01-.01.01 0 0 .02.02.02.02 0h.01c.01.02.02.02.02 0 0-.01.04-.02.06-.01h.12l.05-.01a.3.3 0 0 0 .08-.02c.02 0 .06 0 .1-.02a.1.1 0 0 1 .02-.01c.06 0 .1-.07.04-.1l-.03-.01a.1.1 0 0 0 0-.02l-.04-.03v-.03a.06.06 0 0 1-.02 0l-.02-.02a.15.15 0 0 1-.03 0 .62.62 0 0 0-.17-.03H6.1c0-.02-.15-.02-.2 0h-.1a.33.33 0 0 0-.07.02h-.06v.03h-.02l-.04.03a.14.14 0 0 0-.05.03v.02l-.09.06-.02.02c-.02 0 0 .09.03.1h.01v.03l.02.03.01.02.02.02a.1.1 0 0 0 .06.04l.05.02a.2.2 0 0 0 .06 0c.1.02.11.03.1.07v.4l.01.19c0 .07 0 .08-.04.08h-.06a.53.53 0 0 0-.22.03.3.3 0 0 0-.1.05c-.03.03-.4.03-.43 0a.06.06 0 0 0-.02 0l-.03-.01a.29.29 0 0 0-.08-.02.18.18 0 0 1-.04 0h-.06c0-.01 0-.02-.06-.02-.1 0-.1.02-.1-.2v-.34c0-.18 0-.17.01-.17h.03l.04-.02a.3.3 0 0 0 .05-.02l.05-.02a.05.05 0 0 0 .03-.01l.02-.02.04-.07c0-.02-.05-.02-.05 0l-.04.05a.13.13 0 0 1-.06.02.31.31 0 0 0-.08.03.13.13 0 0 1-.03 0l-.03.02a.25.25 0 0 1-.02.02v.27a23.42 23.42 0 0 0 0 .36v.09c.01.06.01.07 0 .07-.02 0-.02.03 0 .03v.02c0 .04.03.06.04.04h.02c.01-.01.04-.02.04 0 .02 0-.05.03-.08.02H4.5a.06.06 0 0 1 0-.06V2.6c-.05 0-.06-.05-.05-.2a.8.8 0 0 0 0-.07v-.2a3.5 3.5 0 0 1 0-.22c0-.06 0-.06-.03-.06-.02 0-.03-.03 0-.03.01 0 0-.02-.03-.02-.06-.03-.07-.05-.03-.07.04-.02.04-.03.03-.03h-.17l-.2-.01a.04.04 0 0 0-.04-.01c-.03 0-.06-.03-.04-.04h.03a.42.42 0 0 1 .1 0h.14c0-.01 0-.01 0 0 0 .02.03 0 .04-.01 0 0 0-.01 0 0 0 .02.03.03.03 0h.01c0 .03.02.03.02 0 0-.01 0-.02.01 0 0 .03.02.03.02 0h.02c0 .03.01.03.02 0h.12l.01-.01h.02c0 .02.01.02.02 0h.02l.06-.01h.05v-.02h.03l.04-.02h.03l.02-.01c.06 0 .13-.07.08-.08-.02 0-.06-.04-.06-.05 0-.03-.07-.08-.12-.08a.52.52 0 0 0-.13-.02h-.09a.74.74 0 0 0-.16 0h-.23a.06.06 0 0 1 0 .05h-.03a.35.35 0 0 0-.1.08h-.02v.02a.1.1 0 0 1-.05.04c-.05.04-.06.1 0 .13l.02.02.04.08h.02c0 .03.16.07.21.07.06 0 .06-.04.06.36 0 .35 0 .35-.04.35h-.08a.06.06 0 0 0-.03 0 .34.34 0 0 1-.05.03h-.08a5.34 5.34 0 0 1-.83 0c-.13 0-.13 0-.13-.04v-.35c0-.33 0-.3.04-.32a.47.47 0 0 0 .16-.05l.04-.03h.01l.01-.01s0-.02.02-.03c.02-.02.02-.04 0-.04h-.02l-.04.02c-.03 0-.03 0-.03.02s0 .03-.04.04a.17.17 0 0 0-.03 0h-.04l-.03.02c-.04 0-.1.04-.1.06v.77a.06.06 0 0 0-.02 0h-.04c-.03 0-.04 0-.04-.04v-.05a.04.04 0 0 1 0-.04v-.02a.2.2 0 0 1 0-.06 3.71 3.71 0 0 0 0-.4.37.37 0 0 1 0-.06c0-.06 0-.06-.03-.07-.02 0-.03 0-.02-.02.02-.01 0-.02-.02-.03-.03-.01-.04-.04-.02-.04.04 0 .06-.04.02-.04h-.26l-.14-.04c-.04-.02-.02-.03.21-.02h.1v-.02h.01c0 .03.02.04.02.02.01-.01.02-.02.02 0h.01c0-.02.01-.02.02-.02 0 .02.01.03.02.02h.04c0-.02 0-.02.01 0l.03-.01c0-.01 0-.01 0 0h.03c0-.02 0-.01.01 0 0 .02.02 0 .02 0 0-.02 0-.03.02-.02h.07l.08-.02a.43.43 0 0 0 .11-.01l.1-.04c.03-.02.03-.06 0-.06s-.03-.02-.08-.08l-.02-.02-.03-.01V1.4a.08.08 0 0 1-.04 0 .2.2 0 0 0-.1-.03H3l-.08-.03h-.19a.1.1 0 0 0-.05 0l-.05.02a.3.3 0 0 0-.06 0l-.07.03a.38.38 0 0 0-.07.02.1.1 0 0 1-.03 0l-.03.05a.3.3 0 0 0-.04.06h-.02a.1.1 0 0 0-.03.03l-.03.03v.05c0 .04 0 .04.05.07l.03.04.01.03.01.02h.02l.02.02h.03c.04.04.1.05.14.05.07 0 .07 0 .07.14v.54c0 .02-.38.03-.56 0a.48.48 0 0 0-.09 0 .26.26 0 0 1-.05 0h-.16a.47.47 0 0 1-.1 0h-.03a2.9 2.9 0 0 0-.34-.01l.03-.14.02-.08a1.61 1.61 0 0 1 .03-.14l.02-.06.01-.06a1.09 1.09 0 0 1 .03-.13 3.43 3.43 0 0 1 .06-.23 5.2 5.2 0 0 1 .06-.28v-.04c.02-.03.02-.05.04-.13L1.67 1c0-.02 0-.02.64-.02zM6.72 2.7h.01c.02.06 0 .15-.04.15l-.03.03a.04.04 0 0 0-.04.04.1.1 0 0 1-.02.03v.1l-.03.09v.8l-.02.1a1.9 1.9 0 0 1 0 .19v.72a.03.03 0 0 0 0 .02V5a2.39 2.39 0 0 0 0 .38v.28a.39.39 0 0 0 0 .08.53.53 0 0 1 0 .12l-.02.1v.07l-.02.03.01.02.01.04c0 .04.02.08.05.1h.06v-.01c-.02 0-.02-.01 0-.04v-.41a.18.18 0 0 1 0-.08v-.04c.02 0 .07.06.07.08l.01.04.02.06v.03l.01.03v.06l.02.08v.09c.02.06.02.08 0 .1-.02.03-.02.03.04.03.05-.01.06-.01.05-.03v-.23c0-.1.03-.08.04.02v.03h.02v.03c.03 0 .05.1.04.1l.01.05C7 6.22 7 6.2 7 6.17a.33.33 0 0 1 0-.12V6c-.02-.01-.02-.02 0-.02v-.14c.01 0 .02-.02.01-.03v-.1c.02-.01.02-.02.02-.03h.01l.01-.02.04-.04c.04 0 .04-.06 0-.07v-.02c0-.04-.05-.03-.06 0l-.02.03v.07l-.02.02v.02l-.04.03.01-.07.02-.04v-.03A.04.04 0 0 0 7 5.53V5.5a.03.03 0 0 0 0-.02v-.01c.01 0 0-.05 0-.07 0 0 .02-.02.03-.01h.02c.03-.02.06-.01.08 0l.03.03c.01 0 .02 0 .02.02l.03.04.02.03v.05l.03-.01v-.02c.01 0 .01 0 0 0l-.02.1a.7.7 0 0 1 0 .07.8.8 0 0 0-.04.12l-.02.08v.05l-.04.1a3.35 3.35 0 0 1-.03.16l-.02.08a.5.5 0 0 1-.02.07v.03c0 .02 0 .02 0 0h-.03a3.14 3.14 0 0 1-.2 0c0-.02 0-.02-.05-.02a.12.12 0 0 1-.06-.01.26.26 0 0 0-.04-.02s-.03-.02-.02-.03h.06l.06.03a.06.06 0 0 1 .04.02c.02.02.23 0 .24-.02v-.05h-.22a.05.05 0 0 1-.04 0h-.1a.3.3 0 0 0-.05-.02l-.04-.01-.04-.01a.12.12 0 0 1-.03 0c-.03.03-.02.05.03.06.06 0 .07.07 0 .07-.05.07-.1-.01-.08-.13a1.79 1.79 0 0 1 0-.16v-.24l.01-.6v-.8a8.26 8.26 0 0 1 0-.21V3.2a1.1 1.1 0 0 0 0-.16v-.02h-.04v.05c-.02 0-.02 0 0 .02v.04a2.79 2.79 0 0 0 0 .23.06.06 0 0 1 0 .03v.03a1.08 1.08 0 0 1 0 .07 17.75 17.75 0 0 0 0 .45 59.2 59.2 0 0 1 0 .8.81.81 0 0 0 0 .19v.28a66.82 66.82 0 0 1 0 1.1v.05c0 .03 0 .03-.03.03l-.03.06-.05.12c-.02.05-.02.15 0 .15a.14.14 0 0 0 .02.04l.02.04c0 .02.04.07.05.07.02 0 .02.27.01.3a.04.04 0 0 0 0 .03v.2l.01.08c.03 0 .04 0 .03-.05a.15.15 0 0 1 0-.04v-.23c0-.23.02-.25.08-.21h.02v.02h-.02c-.03 0-.03 0-.03.08a7.65 7.65 0 0 0 .01.4c0 .03.02.04.07.03.02 0 .03-.2.02-.2a.15.15 0 0 1 0-.05.4.4 0 0 0 0-.1v-.16c0-.04 0-.04.02-.04h.01l.04-.01.04-.01c.02-.02.08-.01.08 0l-.03.02a.06.06 0 0 0-.03 0c0 .02-.02.02-.03.02-.02 0-.02.03 0 .04a1.03 1.03 0 0 1 0 .22l.01.1c0 .09 0 .1-.02.1s-.04.06-.02.06l.1-.02v.02c0 .02 0 .02-.37.02s-.4 0-.38-.01v-1.1a3.16 3.16 0 0 1 .01-.32v-.93a180.27 180.27 0 0 0 0-.5 26.4 26.4 0 0 0 .01-.81v-.45c.02-.05.02-.05-.08-.05h-.08c0-.02.02-.03.1-.03a.37.37 0 0 0 .1-.01v-.04a.02.02 0 0 1 0-.01l-.04-.01-.02-.02c0-.02-.04-.05-.06-.05l-.03-.02a.05.05 0 0 0-.03-.01c-.06-.02-.08-.04-.06-.1C5.91 3 5.91 3 6 3h.03c0-.02-.02-.03-.05-.03a.4.4 0 0 1-.06 0 .24.24 0 0 0-.05 0h-.13a2.07 2.07 0 0 1-.18-.01c-.04 0-.07 0-.04.02.04 0 .05.05.02.08v.06l-.02.03v.03c-.02 0-.03.03-.03.04l.03.05c.03 0 .03 0 .02.03v.07a23.2 23.2 0 0 0 0 .56 3.92 3.92 0 0 0 0 .15 39.64 39.64 0 0 1 .01.45 4.31 4.31 0 0 0 0 .24.2.2 0 0 1 0 .06l.01.05v.59l.01.18c0 .04 0 .05-.03.05h-.02c0 .03-.02 0-.02-.01v-.04a.2.2 0 0 1-.02-.06v-.44a1.04 1.04 0 0 0 0-.2V4.9a.11.11 0 0 0 0-.03v-.06a.11.11 0 0 1 0-.05v-.12l-.02-.13v-.2c0-.03-.03-.04-.04-.01l-.03.02c-.02 0-.05-.04-.04-.06v-.02c-.03.03-.04.03-.05 0 0-.01-.02 0-.02.02-.02 0-.02-.01 0-.03v-.05l.01-.03h.02c.02-.03.06 0 .06.04h.01c.02 0 .02 0 .01-.06 0-.1.02-.11.03-.05 0 .04.02.04.04.02s.02-.1 0-.16a.6.6 0 0 1 0-.2.52.52 0 0 1 0-.1V3.5a7.62 7.62 0 0 1 0-.34.45.45 0 0 1-.02-.06.43.43 0 0 0 0-.1v-.02a.1.1 0 0 1-.05-.05.08.08 0 0 0-.03-.03l-.07-.06s0-.01 0 0a.35.35 0 0 0 .06 0h.07l.02.02h.11a10.97 10.97 0 0 0 .35.03c.01 0 .03 0 .03-.03v-.01.02c0 .02.01.02.02.02h.15a.28.28 0 0 1 .1-.01h.04l.06-.02a.66.66 0 0 1 .12-.02.93.93 0 0 0 .12-.02l.1-.03.04-.05c.02-.04.04-.05.05-.05zm-1.6.12h.03c.02.02-.02.08-.06.1a.14.14 0 0 0-.04 0l-.02.03C5 2.96 5 3 5 3.09a.68.68 0 0 1 0 .07s-.03 0-.03-.02v-.07L4.98 3c.02-.02.02-.04 0-.03-.04 0-.05 0-.05.03a.1.1 0 0 1 0 .04.77.77 0 0 0 0 .28l-.03.15a14.37 14.37 0 0 1 .01.96.56.56 0 0 1 0 .14.6.6 0 0 1 0 .13.4.4 0 0 0 .01.08v.03a.09.09 0 0 0 0 .03 3.52 3.52 0 0 1 0 .32 11.55 11.55 0 0 0 0 .3v.08l.01.15c0 .14 0 .16.02.17v.07h-.02v.03H4.9l-.02.03-.03.03-.03.06a.05.05 0 0 0 0 .02.06.06 0 0 1 0 .03c-.03 0-.03.04-.04.08v.1a.14.14 0 0 0 .02.06l.02.02v.02c.04.05.06.06.08.04 0 0 .05 0 .06.02l-.03.02c-.02 0-.02 0-.02.02s.02.03.05 0h.1l-.03.03c-.02-.02-.08 0-.07.03v.06a2.54 2.54 0 0 0 0 .3v.48c0 .09 0 .09-.14.09H4.5c.02-.01.02-.04.02-.08l.01-.05v-.03a.85.85 0 0 1 0-.17v-.08a.34.34 0 0 1 0-.08v-.06a.18.18 0 0 1 0-.05 1.25 1.25 0 0 0 0-.18V5.9a.52.52 0 0 1 0-.12l.01-.48v-.34a.02.02 0 0 1 0-.01V4.9a.2.2 0 0 1 0-.05v-.12a3.43 3.43 0 0 1 0-.2v-.06l.01-.6a11.44 11.44 0 0 0 0-.5H4.5l-.02.02v-.02c.01-.01 0-.02-.07-.01-.04 0-.05 0-.04-.02h.05c.15-.01.18-.02.11-.05a.05.05 0 0 1-.02-.03.03.03 0 0 0-.02-.02.15.15 0 0 1-.04-.02.52.52 0 0 0-.1-.05c-.04-.02-.04-.04-.03-.1 0-.03 0-.03.03-.03.06 0 .1-.02.1-.03 0 0-.02-.02-.03-.01h-.16a9.85 9.85 0 0 1-.2 0l-.1-.01h-.04s0 .02.02.03c.03 0 .04.04.02.07v.03l-.02.05a.37.37 0 0 0-.02.08c0 .03.03.06.06.06H4h-.03c-.02 0-.03.03-.03.05v.14a6.95 6.95 0 0 1 .01.28 38.33 38.33 0 0 0 .02 1.04v.38a1.66 1.66 0 0 0 0 .13v.13a14.5 14.5 0 0 1 .02.72h-.06c0 .02 0 0 0 0a.22.22 0 0 0-.02-.06V5.9a11.57 11.57 0 0 1-.02-.55.38.38 0 0 1 0-.03.26.26 0 0 0 0-.1V5.2a.04.04 0 0 0 0-.03V4.9a.4.4 0 0 1 0-.12v-.16c-.03-.01-.03-.02-.02-.02v-.03a.05.05 0 0 1 0-.04c.02-.01.02-.02 0-.04v-.04c.01 0 0-.05 0-.07v-.05c0-.05-.02-.05-.05-.02-.03.03-.04.03-.05.02l.01-.04v-.01l.01-.01v-.02a.03.03 0 0 0 .02-.01V4.2c0-.02.01-.03.03-.03.02 0 .02 0 .03-.03a.2.2 0 0 1 .01-.05v-.06c.01-.02 0-.04 0-.07a.8.8 0 0 1-.02-.22V3.5a.08.08 0 0 1 0-.04v-.04c-.02-.04-.02-.06 0-.08V3.1a.02.02 0 0 1 0-.02v-.02l-.03-.02a.08.08 0 0 0 0-.03l-.02-.02-.04-.06h-.02v-.04h.03a.3.3 0 0 0 .05.02h.04s.02.02.06.02h.29c0-.01 0-.01 0 0h.25a2.6 2.6 0 0 1 .08 0h.1l.01-.01h.03l.05-.01.1-.02.05-.01a.2.2 0 0 0 .05-.01h.02s.04 0 .07-.02a.07.07 0 0 1 .03 0l.02-.02zm-1.57.03h.03l-.02.06c-.05 0-.02.03.07.03.1 0 .1 0 .1.02.03.03 0 .04-.1.04s-.1 0-.1-.04c0-.02 0-.03-.03-.01h-.02l-.02.02a.07.07 0 0 1-.02.02.63.63 0 0 0-.02.25v.22a3.4 3.4 0 0 1-.02.4V3.8a2.86 2.86 0 0 1 0-.58.52.52 0 0 1 0-.12v-.13c-.04 0-.04 0-.04.02v.04a.54.54 0 0 0-.04.2v.08c.02 0 .02 0 0 .03v.08a2.13 2.13 0 0 1 0 .19.03.03 0 0 0 0 .02v.1a2.94 2.94 0 0 0 0 .3v.17l.01.07v.88a18.33 18.33 0 0 1 .02.7v.1a.22.22 0 0 1 0 .09v.02h.01v.2l.02.07c0 .04.01.04.12.04.03 0 .04 0 .04.02 0 0 0 .02-.03 0-.02 0-.03 0-.03.02 0 .03-.02.04-.1.04-.09 0-.1 0-.1.03v.02l-.04.04a.32.32 0 0 0-.03.07l-.02.04c0 .03 0 .13.02.13l.01.04c.01.05.03.08.04.08l.02.02h.03l.11.02s0 .02-.04.02c-.03 0-.04 0-.04.02s.02.02.06 0h.1c0 .03-.02.03-.03.03-.02-.01-.08 0-.08.02v.02c-.02.02-.03.05 0 .06v.32l.01.04c.03 0 .04-.03.03-.1v-.05l.01-.02a.47.47 0 0 1 0-.08v-.16c.01 0 .02 0 .02.04v.35s0 .02.02.02a5.57 5.57 0 0 1-.54-.02s.02-.42.01-.6a12.94 12.94 0 0 1 0-.63.52.52 0 0 1 .01-.13v-.15a.17.17 0 0 1 0-.03v-.94a.05.05 0 0 1 0-.02V4.9a1.75 1.75 0 0 1 0-.25 1.6 1.6 0 0 1 0-.13v-.1a10.23 10.23 0 0 1 0-.35 9.26 9.26 0 0 1 0-.16v-.05a3.46 3.46 0 0 0 0-.16.4.4 0 0 0 0-.1v-.2c0-.02 0-.02-.06-.02a.34.34 0 0 1-.1 0c-.02-.01 0-.02 0-.02a.2.2 0 0 1 .07 0 7.09 7.09 0 0 0 .1-.01c.04 0 .04-.03 0-.04l-.05-.04-.04-.02-.02-.02-.04-.03a.09.09 0 0 1-.08-.08c0-.05.01-.06.06-.06.04 0 .05-.01.03-.03h-.18a3.7 3.7 0 0 0-.14 0l-.07-.01h-.07c0 .02-.02.02-.02 0l-.13-.04a.06.06 0 0 1-.04-.02h-.04c0 .03 0 .03-.12.03h-.2a3.81 3.81 0 0 1-.23 0 1.51 1.51 0 0 1-.08 0H1.2c-.04-.05.01-.06.27-.06h.46a.86.86 0 0 1 .27 0h.1l.05.02a1.21 1.21 0 0 1 .16.02h.16c.01-.02.02-.01.02 0h.04a.25.25 0 0 1 .1 0h.01a.02.02 0 0 1 .02 0h.07c.08 0 .11-.01.12-.02a.02.02 0 0 1 .02 0h.05a.1.1 0 0 0 .03-.01l.04-.01h.04l.06-.02a.4.4 0 0 1 .1-.01c.03 0 .05 0 .06-.02h.03a.04.04 0 0 0 .02-.01.04.04 0 0 1 .02-.01.01.01 0 0 0 .01-.01zm4.33.05v.04a.1.1 0 0 0 0 .04h-.1a1.24 1.24 0 0 0-.08 0h-.47a.03.03 0 0 1-.03 0h-.08a.9.9 0 0 1-.1 0H6.9a4.4 4.4 0 0 1-.2 0c-.04 0-.05 0-.05.04 0 .02.03.04.05.03a11.43 11.43 0 0 1 1.15-.01v-.02.09l-.02.03v-.02c-.02 0-.2.02-.42.02H7c-.4 0-.36 0-.36-.1v-.06c0-.06.08-.07.32-.07a14.11 14.11 0 0 0 .25 0h.01a104.4 104.4 0 0 0 .66 0V2.9zm-6.7.19h.48c.58 0 .52 0 .52.07 0 .05.03.05-.35.05h-.68v-.06l.01-.04zm1.2.26h.03v.02a20.8 20.8 0 0 1 0 1.49.15.15 0 0 1 0-.08.03.03 0 0 0 0-.03v-.02l-.02-.03c0-.02 0-.03-.02-.04v-.08a.2.2 0 0 0 0-.05V4.5a.06.06 0 0 0 0-.03v-.01l.01-.1v-.45a2.6 2.6 0 0 0 0-.17V3.5c-.02-.1 0-.15 0-.16zm5.25.32h.08a10.76 10.76 0 0 1-.03.1v.05l-.02.06a7.08 7.08 0 0 1-.05.2v.07h-.02l-.03-.01h-.44l.2-.02a1 1 0 0 0 .14 0c.03 0 .12 0 .13-.02v-.05H7.2c-.02 0-.02 0 0 0l.06-.01a.5.5 0 0 0 .07 0h.2c.08 0 .08-.01.1-.03 0-.04 0-.04-.04-.04h-.28L6.95 4a3.25 3.25 0 0 0-.17 0h-.1c-.07 0-.06.03-.06-.14 0-.15 0-.14.02-.13h.03l.02-.01h.14a.54.54 0 0 1 .08 0L7 3.7h.12l.1-.02h.1a.6.6 0 0 0 .1-.01h.1a.54.54 0 0 0 .11-.01zm-5.53.26h.03c.02.02.03.03.02.09v.1c0 .09.02.08-.26.09h-.27a3.96 3.96 0 0 1-.18.02 7.84 7.84 0 0 0-.54 0l.01-.05.03-.1v-.03c0-.05.01-.06.17-.06a2.63 2.63 0 0 1 .28-.02 4.65 4.65 0 0 0 .24 0l.2-.02a12.47 12.47 0 0 1 .27-.02zm2.92.1h.02c.02 0 .03.02.03.02v.05c0 .03.01.04.04.04s.04 0 .06-.03c.01-.03.02-.03.03 0l.02.02c.01 0 .02.06 0 .08a.42.42 0 0 0 0 .03c-.02.04-.03.05-.07.05l-.05.02c.01.03-.03.03-.05 0a.07.07 0 0 0-.02-.01c-.02-.01-.02-.01 0-.02v-.05H5c0 .03-.03.03-.04.02v-.22h.01c.01.02.02.02.03 0L5.02 4zm-1.57.03.02.02c.02 0 .02 0 .02.03 0 .05 0 .06.04.06.02 0 .06-.01.07-.04h.02c0 .03.01.04.02.04l.02.02c0 .02.01.02.02 0a.03.03 0 0 1 .02 0h.08c.02 0 0 .08-.02.08s-.04 0-.04-.02-.02-.02-.03 0a.05.05 0 0 0 0 .02v.04-.05c0-.04-.02-.05-.04-.02-.02.02-.03.02-.03.04s0 .03-.05.03c-.03 0-.05 0-.05.04-.02.03-.04.05-.04.02v-.04l-.02-.03v-.08c-.03 0-.03.13-.02.26a.06.06 0 0 1 0 .02.1.1 0 0 0 0 .04.84.84 0 0 1 0 .1 33.92 33.92 0 0 1 0 .35v.04c.01.03.01.05 0 .07v.43a.3.3 0 0 0 0 .1 1.3 1.3 0 0 1 0 .2.14.14 0 0 1 .01.05.35.35 0 0 1 0 .1V6c.01 0 0 .07-.02.06V5.9a2.07 2.07 0 0 1 0-.26v-.12a.93.93 0 0 0 0-.12v-.07a1.84 1.84 0 0 1 0-.18L3.4 5a14.5 14.5 0 0 1 0-.72c-.04-.06-.03-.14 0-.17l.02-.03c0-.02.02-.02.03-.02zm3.34.04a.53.53 0 0 1 .12 0h.03l.03.02h.05l.05.02c.04 0 .04 0 .04.02v.02h-.04c0 .02 0 .02-.05.02a1.15 1.15 0 0 0-.17 0h-.03l-.03-.01h-.05c-.03 0-.05-.02-.05-.04l-.02-.02.06-.01zm-.17.1.02.02.01.03a1.23 1.23 0 0 0 .35 0h.07c.03-.02.05-.02.15-.02h.21a.74.74 0 0 0 .1-.01h.01c0 .02.02.02.03 0v.07l-.05.16a.43.43 0 0 0-.02.12l-.02.09v.02l-.02.05a.43.43 0 0 0-.02.08v.04l-.03.08L7.4 5a.27.27 0 0 0 0 .05v.03a2.09 2.09 0 0 0-.04.1v.06l-.02.02v.05l-.03.05v.03a.07.07 0 0 1 0-.03v-.02l-.03-.02a.06.06 0 0 0 0-.02.51.51 0 0 1-.02-.03.08.08 0 0 0-.03-.03v-.02a.02.02 0 0 0 0-.01.07.07 0 0 1-.03-.02.1.1 0 0 0-.03-.03l-.02-.02s0-.02-.02-.03a.7.7 0 0 1-.06-.05A.25.25 0 0 0 7 5l-.02-.02a.02.02 0 0 0-.02-.01l-.02-.01v-.01l-.05-.03-.05-.02a.17.17 0 0 1-.03-.03.04.04 0 0 0-.03 0l-.03-.02H6.7s0 .02.03.02a.1.1 0 0 1 .03.02h.02l.05.04c0 .02-.05 0-.08-.03a.07.07 0 0 0-.03 0 1.67 1.67 0 0 1-.04-.01v.02h.05l.01.02c0 .02.05.05.07.05.02 0 .05.03.05.05h.01c.02 0 .02.02.03.06 0 .03 0 .03-.02 0v.02c0 .02.01.03.02.03.02 0 .02 0 0 0v.05c0 .02 0 .03-.04.03h-.02l-.04.03a.12.12 0 0 1-.05 0h-.02v.02a.06.06 0 0 0-.03 0 .04.04 0 0 1-.06-.05v-.06a.36.36 0 0 1 0-.18.07.07 0 0 0 0-.04.06.06 0 0 1 0-.03c.02-.02.02-.03 0-.04 0 0 0-.02.02-.02s.02-.01 0-.02c-.02 0-.02 0-.02-.2v-.18c0-.04 0-.06.03-.06a7.1 7.1 0 0 0 .42-.03l.33-.01.1-.01.02-.04a.03.03 0 0 1-.03 0 4.41 4.41 0 0 0-.39.02 1.95 1.95 0 0 1-.2.02h-.18c-.1.02-.12 0-.12-.04v-.1zM5 4.3c.01 0 .02.04.02.13a10.75 10.75 0 0 1 0 .25v.38a3.32 3.32 0 0 1 0 .16v.15a4.6 4.6 0 0 1-.03-.22 3.1 3.1 0 0 1 0-.4.03.03 0 0 1 0-.03v-.04a.66.66 0 0 0 0-.14V4.4a.05.05 0 0 0 0-.02V4.3zm.23.2h.14v.28l.01.05v.05a.3.3 0 0 0 0 .08 1.48 1.48 0 0 1 0 .26v.07a.2.2 0 0 0 0 .07.2.2 0 0 1 0 .06v.06a1.52 1.52 0 0 1 0 .34.1.1 0 0 1-.07.02s-.03 0-.04.02h-.04c0-.02-.06-.03-.08-.02-.04.02-.05 0-.05-.14v-.71l-.02-.25V4.5h.14zm-1.65.1h.22v.37a5.54 5.54 0 0 0 0 .29v.16a1.74 1.74 0 0 0 .01.16v.19c.01.55.01.54-.04.54h-.19c-.06 0-.06.03-.06-.31V4.68c0-.07-.03-.1.05-.1zm-1.38.13.01.1v.1c.01.02.01.02-.03.03h-.06a.66.66 0 0 0-.1.05h-.03a.17.17 0 0 0-.07.05l-.08.04v.02l-.05.02a.39.39 0 0 1-.08.07c0 .02-.03.05-.05.06l-.02.02-.02.04-.02.02v.02l-.03.02v.02l-.03.03a.05.05 0 0 1 0 .02.03.03 0 0 0-.02.02v.02H1.5v.03a.03.03 0 0 0-.02.02v.04l-.03.04v.03l-.02.03v.08l-.03.03v.03c0 .03-.04.04-.1.04-.05 0-.05 0-.07.02-.03.03-.03.03-.07.03H.97a7.16 7.16 0 0 1-.48 0 18.7 18.7 0 0 0 .08-.37l.03-.1v-.01l.01-.06.02-.07.02-.06.01-.07L.7 5l.03-.1c.01-.07.02-.07.17-.08a4.46 4.46 0 0 0 .28-.02 1.45 1.45 0 0 1 .2-.02.9.9 0 0 1 .08 0 .49.49 0 0 0 .08 0l.15-.02a2.7 2.7 0 0 0 .28-.02 1.7 1.7 0 0 1 .2-.01h.01zm.23 1.25h.02c.02 0 .03.04.03.05-.02 0-.04 0-.04.03l-.03.02a.55.55 0 0 1-.15.03H2.2c-.1.02-.14.02-.23.02h-.15c-.05.02-.07 0-.07-.01 0-.03 0-.04.15-.04a3.15 3.15 0 0 0 .25 0l.06-.02a.53.53 0 0 1 .16 0h.04c0-.02 0-.02-.02-.02s-.04 0-.03-.02c0-.02.02-.03.04-.03h.04zm3.2.06c.03 0 .08 0 .1.02l.01.03.01.02a.07.07 0 0 1 .01.03l.01.07v.12a.06.06 0 0 1-.02.02v.02l-.03.02a.1.1 0 0 0-.02.03c0 .02-.02.02-.04.02H5.6c-.1.02-.1 0 0-.05l.02-.01.03-.02c.04 0 .04-.03 0-.03a.17.17 0 0 0-.04.02.12.12 0 0 1-.03 0l-.03.03a.2.2 0 0 1-.06 0 .15.15 0 0 0-.04.03c-.03.02-.2.02-.22 0-.03 0-.1-.07-.1-.08 0-.03.16-.1.2-.08l.05-.02.05-.02h.07c.04.02.07 0 .08-.06a.04.04 0 0 1 .01-.02V6.1l.02-.04.02-.01v-.02zM1 6.1a.42.42 0 0 1 .13 0h.04c.05 0 .04.04 0 .05a1.8 1.8 0 0 1-.3 0H.43v-.01h.1a1.41 1.41 0 0 0 .23-.02.4.4 0 0 0 .06 0l.06-.01H1zm1.53 0 .03.02.02.03.01.04c.04.08.02.22-.03.27v.02c0 .02-.03.03-.09.03-.05 0-.05 0-.04-.01l.04-.03.06-.03.01-.01c0-.01-.02-.02-.04 0a.66.66 0 0 1-.16.04l-.08.02a.36.36 0 0 1-.16 0h-.12a3.52 3.52 0 0 1-.2-.01c-.05 0-.05 0-.06.03 0 .02 0 .03-.02.03-.03 0-.04 0-.04-.05v-.05c-.03 0-.03 0-.03.05 0 .04 0 .05-.02.03 0-.02 0-.02-.12-.01h-.13c-.02 0-.05.02-.05.03 0 0 0 .02-.02 0-.02 0-.05-.1-.04-.12l.04-.06c0-.02.01 0 .02.02 0 .02.03.03.05.02a1.22 1.22 0 0 1 .22 0c.02-.01.03-.02.03-.04 0-.01 0-.03.01-.02v.03c.01.05.04.05.04 0l.02-.01v-.1c0-.1.01-.1.03-.1v.08c0 .12 0 .12.1.1a.8.8 0 0 1 .11 0 .81.81 0 0 0 .27-.03.04.04 0 0 1 .02-.01.2.2 0 0 0 .08-.02l.07-.01c.06 0 .1-.02.1-.05l.01-.01.03-.05c0-.03.02-.04.03-.05zm-1.35.29h.02l.01.04v.04c0 .03 0 .04-.03.03H.91a1.88 1.88 0 0 0-.29.02H.37l.01-.1h.2l.31-.02h.15a2.13 2.13 0 0 0 .14-.01zm4.4.1v.08c0 .07 0 .07-.02.1-.02 0 0 .02 0 .04.02 0 .02.02.02.05v.18l.02.52c.01.02.01.02-.08.02-.04 0-.05 0-.04-.02.02-.01.02-.02.01-.04V7.4a.35.35 0 0 0 0-.08v-.13a.04.04 0 0 1 0-.03v-.11c.01-.01 0-.06 0-.07v-.13a.2.2 0 0 1 0-.07V6.6c0-.03 0-.06.03-.06l.02-.01.03-.03zm-1.45.04h.03l.02.04.02.04a.32.32 0 0 1 0 .22v.05a.05.05 0 0 0-.02.02l-.03.02s-.03.02-.05 0h-.04c-.05.03-.08 0-.03-.02.02 0 .03-.01.03-.02l.04-.01.02-.01a.03.03 0 0 1 .01 0l.02-.03c0-.02-.03-.01-.05 0a.09.09 0 0 1-.02.02.24.24 0 0 0-.08.02.05.05 0 0 1-.02 0l-.02.02h-.03l-.08.03H3.7c0-.02-.02-.02-.03-.02a.03.03 0 0 1 0-.01.06.06 0 0 0-.04-.02c-.02 0-.04-.04-.04-.05 0-.02.03-.03.08-.03h.05l.03-.01.02-.01.05-.03a.3.3 0 0 0 .05-.02.02.02 0 0 1 .01 0l.03-.01c.01-.02.02-.02.02-.01 0 0 .03.03.05.03.02 0 .03-.01.05-.06l.01-.04.01-.03c0-.03.04-.06.07-.06zm1.07 0a.68.68 0 0 0 .1 0c.1 0 .1-.03.1.3v.63c-.02 0 0 .03 0 .03a2.98 2.98 0 0 1-.28-.01 14.23 14.23 0 0 0 0-.62v-.04a.2.2 0 0 1 0-.06v-.03a.58.58 0 0 1 0-.08c0-.1 0-.1.04-.1h.04zm-3.4.02a.2.2 0 0 1 .06 0c.02 0 .02 0 0 .03v.02c-.02 0-.02 0-.02.02-.02 0-.03 0-.03.03v.1l.01.12c.01.05 0 .07-.06.06-.03-.01-.05-.06-.03-.07V6.8a.01.01 0 0 1 0-.01v-.05a.1.1 0 0 1 0-.04v-.08l.01-.03a.06.06 0 0 1 0-.02h.06zm3.22 0h.01l.01.1a35.82 35.82 0 0 1 .02.79v.04H5c.02-.01.02-.03.02-.13V7.3a1.25 1.25 0 0 0 0-.1v-.1a.16.16 0 0 1 0-.06 2.19 2.19 0 0 1 0-.24zm-2.8.07h.03l.01.07v.18a12.72 12.72 0 0 1 .01.29 1.92 1.92 0 0 1 0 .13v.15c0 .03.01.03.02.03h-.17a2.72 2.72 0 0 1 0-.27c0-.2 0-.32-.02-.35-.05-.1-.02-.22.05-.22zm-1.08.03h.1s.04.02.05 0h.03l.04.03c.03 0 .03 0 .03.1v.1c-.03 0-.03.02-.03.05v.52c.05.03.07.03-.6.03-.62 0-.6 0-.6-.02a4.76 4.76 0 0 1 .11-.51V6.9a.85.85 0 0 0 .06-.2c0-.02 0-.02.24-.02a1.01 1.01 0 0 0 .18-.02h.03a.76.76 0 0 1 .1 0h.1c.04-.01.07 0 .07 0h.01l.1-.01zm.65.33h.02c.02.02.01.03 0 .04v.02c.02 0 .03.13.02.28l.01.13v.02h-.08a.76.76 0 0 0 0-.26l.01-.06v-.1c.02-.01.01-.02-.02-.02s-.05 0-.05-.02h.02L1.74 7zm2.12 0 .06.02v.02c0 .02 0 .02.03.02h.02a4.68 4.68 0 0 0 0 .4c-.03 0-.02.03.01.03.02 0 .02 0 0 0h-.1v-.4c.02-.03 0-.03-.03-.04a.1.1 0 0 1-.03-.01l-.02-.01L3.9 7zm-.32.04h.02c0 .02.02.03.05.02h.07a.5.5 0 0 0 .07 0c.04-.01.04-.01.04.08v.08a4.24 4.24 0 0 1 0 .09v.18H3.6c-.05 0-.07 0-.05-.02v-.2c0-.2 0-.2.02-.21l.01-.02z" style="stroke-width:.0694446"/>
  <style>
    path { fill: #155e75; }
    @media (prefers-color-scheme: dark) {
      path { fill: #FFF; }
    }
  </style>
</svg>