<svg viewBox="0 0 36.05 42.09" xmlns="http://www.w3.org/2000/svg"><defs><clipPath clipPathUnits="userSpaceOnUse" id="a"><path d="m502.92 408.61-29.7-128.5h113.55v128.5z" transform="translate(-507 -405)"/></clipPath><clipPath clipPathUnits="userSpaceOnUse" id="b"><path d="m502.92 408.61-29.7-128.5h113.55v128.5z" transform="matrix(1 0 0 -1 -485.39 295.7)"/></clipPath><clipPath clipPathUnits="userSpaceOnUse" id="c"><path d="m502.92 408.61-29.7-128.5h113.55v128.5z" transform="matrix(1 0 0 -1 -509.37 285.98)"/></clipPath></defs><path fill="currentcolor" d="M712.33-187.3c-.3.02-.55.06-.57.08-.14.2-.42 1.17-.49 1.72a16 16 0 0 1-.24 1.18c-.12.47-.2.94-.2 1.04 0 .1-.06.27-.12.38-.06.12-.15.46-.2.76-.05.3-.15.72-.21.93-.07.2-.12.45-.12.56 0 .11-.03.3-.07.43-.06.23-.22.86-.28 1.2l-.15.51c-.07.2-.14.52-.15.72 0 .2-.09.56-.17.8a4.5 4.5 0 0 0-.19.83c-.02.23-.07.48-.1.57a8.86 8.86 0 0 0-.37 1.56c-.03.24-.11.52-.18.62-.06.1-.1.2-.07.24.03.04-.01.23-.08.43-.07.19-.12.46-.12.59 0 .13-.05.32-.11.42-.06.1-.14.3-.16.44a12.84 12.84 0 0 1-.53 2.5 26.72 26.72 0 0 1-.78 3.28l-.13.68a8 8 0 0 1-.2.8c-.08.28-.17.68-.2.87l-.07.52c-.01.1-.05.22-.07.28-.08.2-.31 1.14-.34 1.37-.02.11-.07.31-.13.44-.11.28-.1.23-.18.71-.09.52-.1.58-.2.96l-.16.68c-.04.2-.13.52-.2.71-.06.2-.1.4-.08.44.02.06-.02.26-.09.45-.07.2-.18.56-.24.8-.07.23-.16.48-.2.53-.08.1.76.1 4.66.1 3.71 0 4.78-.01 4.84-.1.04-.05.12-.3.16-.57.05-.26.1-.55.13-.64.22-.78.61-2.48.7-3.04.04-.26.12-.64.19-.84.14-.42.2-.7.26-1.2.02-.2.07-.37.1-.4.06-.04.18-.53.31-1.28.04-.2.1-.52.16-.72.19-.66.24-.91.3-1.3.02-.22.08-.46.11-.53.04-.07.15-.48.23-.92.18-.93.31-1.47.39-1.6a1 1 0 0 0 .07-.36c.04-.38.12-.8.21-1.08.05-.16.08-.27.22-1.04.04-.22.13-.62.2-.88a15 15 0 0 0 .17-.7c.09-.42.16-.22.17.48.01.39.06.97.1 1.3.05.33.1 1.32.13 2.2a394.74 394.74 0 0 0 .4 11.59c.02.88.05 1.6.06 1.62.72.72 7.72-.14 7.72-.94a4.97 4.97 0 0 0 .51-.92 32.2 32.2 0 0 1 .7-1.4c.16-.35.5-1.05.7-1.4.12-.22.26-.53.33-.68.06-.15.17-.37.26-.49a.83.83 0 0 0 .14-.3c0-.06.07-.2.15-.31.08-.12.18-.3.21-.42.03-.1.12-.27.2-.36.08-.08.19-.3.24-.48.06-.17.13-.33.16-.36.03-.02.16-.24.28-.5.12-.25.25-.46.29-.46.04 0 .07-.05.07-.1a7.17 7.17 0 0 1 .8-1.6c0-.04.3-.7.68-1.46.37-.76.68-1.41.68-1.46 0-.04.07-.16.16-.28.1-.11.22-.37.3-.57.06-.2.14-.36.18-.36.04 0 .13-.18.2-.4.07-.21.18-.43.24-.49.07-.05.12-.13.12-.18 0-.2.5-1.07.6-1.04.08.03.08.12 0 .41-.2.67-.43 1.72-.53 2.34-.13.86-.14.88-.23 1-.04.05-.1.23-.12.4a3.65 3.65 0 0 1-.25 1.07 22.57 22.57 0 0 1-.54 2.4c-.07.13-.13.4-.13.58 0 .19-.05.44-.12.57-.06.12-.13.34-.16.48-.18.97-.22 1.14-.38 1.7-.08.3-.15.6-.15.67 0 .07-.04.27-.09.44-.04.18-.09.42-.1.55a.78.78 0 0 1-.1.32.39.39 0 0 0-.1.17 5.94 5.94 0 0 1-.34 1.57c-.04.03-.09.25-.1.5-.02.25-.06.5-.09.54-.03.05-.06.2-.08.34-.02.14-.08.39-.15.56-.17.42-.56.39 4.49.38 5.13-.02 4.88 0 4.93-.4l.09-.49.09-.56c.02-.2.07-.45.12-.56.04-.1.13-.45.2-.76a238.2 238.2 0 0 1 .76-3.24c.08-.22.14-.51.2-1.04.03-.2.08-.43.11-.52.1-.26.31-1.02.37-1.36.03-.17.08-.35.12-.4.06-.08.12-.4.22-1.18.04-.26.11-.5.18-.53.06-.04.09-.1.06-.13s-.02-.15.03-.26c.07-.18.22-.9.34-1.61.02-.11.09-.35.15-.53.07-.18.15-.54.18-.8.02-.26.12-.68.2-.93.1-.26.18-.63.2-.84.02-.2.07-.41.12-.46.04-.04.07-.18.07-.32s.04-.29.09-.33c.04-.05.11-.38.15-.73.04-.36.11-.72.15-.8.04-.08.1-.27.12-.42a12.18 12.18 0 0 1 .3-1.36c.05-.24.13-.5.17-.58.04-.08.1-.35.12-.6.02-.25.12-.7.23-1.01.1-.3.17-.58.15-.61a4.6 4.6 0 0 1 .17-.85c.21-.79.45-1.8.6-2.55.13-.63.32-1.42.4-1.6.04-.08.12-.44.19-.8.06-.35.15-.78.2-.95.05-.18.13-.54.17-.8.04-.27.11-.56.16-.65a.7.7 0 0 0 .06-.36c-.04-.26-13.03-.34-13.27-.08-.13.14-.3.48-.58 1.15-.07.17-.18.36-.25.43a.79.79 0 0 0-.16.33c-.03.12-.08.27-.12.34l-.2.4-.2.4c-.1.16-.35.7-.48 1.02-.05.14-.13.26-.17.26-.04 0-.07.03-.07.08s-.11.33-.25.62l-.45.97c-.11.25-.25.5-.3.56-.05.07-.14.27-.2.44a4.7 4.7 0 0 1-.25.6c-.08.16-.15.33-.15.38 0 .06-.03.1-.08.1-.04 0-.08.06-.08.13 0 .06-.06.2-.12.31-.07.1-.14.24-.15.3-.04.2-.15.42-.29.58-.07.1-.22.38-.32.64-.1.27-.23.54-.29.6a.46.46 0 0 0-.1.22c0 .11-.27.61-.35.65-.03.01-.06.1-.06.18 0 .16-.13.43-.3.61a.86.86 0 0 0-.15.33 2 2 0 0 1-.2.47c-.09.14-.26.47-.38.72-.68 1.4-.8 1.67-.8 1.73 0 .04-.05.13-.11.2s-.18.3-.26.53c-.08.22-.19.43-.24.48-.05.04-.14.21-.2.38a.9.9 0 0 1-.16.34c-.04.03-.08.13-.08.23 0 .2-.35.58-.43.46a.74.74 0 0 1-.04-.3 1182.03 1182.03 0 0 0-.28-15.38 20.9 20.9 0 0 0-.12-2.42c-.08-.21-.08-.21-5.74-.2a198.7 198.7 0 0 1-6.51-.03zm35.93.07c-.08.05-.1.18-.06.5l.12 1.26a9.2 9.2 0 0 0 .23 1.49c0 .3.1 1.02.16 1.3.04.16.08.44.09.62a10 10 0 0 0 .19 1.83 10.86 10.86 0 0 1 .21 1.8c.05.5.1 1.2.11 1.52.02.34.06.68.11.76.07.14.16.71.22 1.44a94.89 94.89 0 0 0 .22 2.08c.03.05.07.4.1.76.03.37.07.8.1.96.07.45.1.65.13 1.1.02.23.06.44.08.48.02.03.08.44.13.9s.1.96.13 1.12c.13 1.05.19 1.5.23 2.01a7.06 7.06 0 0 1 .16 1.34c.03.47.09.9.13.97.04.08.08.34.09.58.01.25.04.45.07.45.02 0 .05.05.05.1a11.72 11.72 0 0 0 .23 2.1c.04.44.1.93.19 1.38.04.21.08.69.09 1.06 0 .37.05.74.08.81.04.07.08.37.1.66.06.87-.57.79 6.03.76 6.05-.03 6.1-.03 6.1-.36 0-.14.94-2.06 1.15-2.37a.8.8 0 0 0 .12-.4c0-.12.06-.25.14-.3.08-.04.12-.07.08-.08-.03 0 .1-.31.3-.7a51.34 51.34 0 0 0 .85-1.78l.27-.53c.1-.23.23-.43.27-.46.05-.03.07-.1.04-.16a.12.12 0 0 1 .08-.15c.06-.02.14-.17.16-.32.03-.15.13-.34.21-.44a.6.6 0 0 0 .16-.33c0-.1.04-.17.08-.17.05 0 .08-.05.08-.12 0-.07.12-.33.26-.58.42-.75.46-.85.46-1.01 0-.09.09-.25.19-.36.1-.11.23-.36.29-.54.06-.18.15-.35.21-.38.06-.02.11-.1.11-.18 0-.08.11-.36.24-.62s.24-.52.24-.58c0-.06.03-.1.06-.1s.13-.16.21-.34l.5-1.06c.2-.4.35-.77.35-.82 0-.06.04-.1.08-.1s.08-.08.08-.17c0-.1.07-.27.16-.39s.23-.38.31-.58c.09-.2.2-.39.24-.42.05-.03.09-.1.09-.18 0-.07.12-.38.27-.7.15-.3.3-.64.32-.73.03-.1.1-.22.17-.27a.34.34 0 0 0 .12-.23c0-.07.07-.26.16-.41.24-.44.61-1.21.7-1.5.05-.15.17-.36.26-.47a.84.84 0 0 0 .16-.28 7 7 0 0 1 .69-1.4.42.42 0 0 0 .1-.26c0-.08.12-.36.25-.62.13-.25.24-.5.24-.53 0-.04.09-.18.2-.33.1-.14.2-.32.2-.4 0-.12.07-.29.25-.6a12.75 12.75 0 0 0 .54-1.12l.22-.44c.08-.18.17-.34.19-.36l.25-.52c.28-.63.45-1 .59-1.24.23-.43.6-1.25.6-1.34 0-.06.1-.25.24-.43.13-.19.24-.42.24-.52 0-.1.05-.2.12-.22.48-.19-.17-.21-5.16-.21-4.62 0-5.29.01-5.33.12-.02.06-.1.12-.19.12-.1 0-.15.08-.19.3-.02.17-.13.42-.25.57-.1.16-.2.37-.2.49 0 .1-.07.26-.15.33-.09.08-.2.29-.25.48-.05.18-.15.42-.21.52-.07.1-.1.19-.07.19s0 .05-.07.12c-.07.07-.13.18-.13.24 0 .12-.12.37-.29.6-.05.06-.1.24-.14.38a1.2 1.2 0 0 1-.2.48c-.08.12-.17.3-.2.42-.04.1-.12.28-.2.4a17.59 17.59 0 0 1-.78 1.7 1.1 1.1 0 0 0-.1.3c0 .05-.13.35-.29.68-.15.33-.28.61-.28.64 0 .02-.08.17-.18.33-.1.17-.23.46-.29.65-.05.19-.17.47-.25.62a1.2 1.2 0 0 0-.16.43c0 .08-.02.16-.06.18-.04.01-.2.3-.36.64a2.3 2.3 0 0 1-.38.62c-.04 0-.08.09-.08.2 0 .1-.09.36-.2.55-.1.2-.2.44-.2.53 0 .1-.06.27-.14.39-.08.11-.2.34-.25.49-.06.15-.15.33-.2.39a.72.72 0 0 0-.1.28.6.6 0 0 1-.1.24.35.35 0 0 0-.08.22c0 .07-.03.15-.07.16a8.01 8.01 0 0 0-.96 2.15c-.04 0-.14.17-.22.37-.18.5-.27.3-.31-.73l-.07-1c-.03-.16-.07-.7-.1-1.2a16.7 16.7 0 0 0-.08-1.16c-.04-.32-.12-1.1-.15-1.64a131.46 131.46 0 0 0-.24-3.24 6.12 6.12 0 0 0-.11-.88.77.77 0 0 1-.01-.4.42.42 0 0 0-.01-.29 4.16 4.16 0 0 1-.1-.88c-.1-1.8-.23-3.63-.36-4.86a3.3 3.3 0 0 1-.03-.7c.02-.06 0-.15-.06-.22-.05-.06-.08-.32-.07-.62.01-.28 0-.55-.04-.6-.07-.12-10.1-.15-10.27-.03zm32.06.1c-.04.1-.1.4-.13.67-.03.26-.1.52-.13.57-.05.05-.12.32-.17.6-.04.28-.15.7-.23.95-.08.24-.16.65-.19.9-.03.27-.07.5-.09.54-.06.1-.33 1.26-.4 1.71-.07.43-.06.42-.13.6-.06.15-.16.56-.18.72a14.63 14.63 0 0 1-.23 1.15.9.9 0 0 1-.13.33c-.05.06-.1.32-.13.57a5.55 5.55 0 0 1-.23 1.23 4.46 4.46 0 0 0-.25.93c-.18 1-.2 1.1-.28 1.24-.04.07-.09.25-.1.4-.1.6-.2 1.2-.25 1.27-.05.08-.1.3-.16.68a7.47 7.47 0 0 1-.28 1.2c-.04.09-.11.4-.16.68l-.12.68-.15.6a7.8 7.8 0 0 0-.17.84c-.03.22-.1.56-.17.76a28.78 28.78 0 0 1-.63 2.48c-.07.23-.12.52-.13.63 0 .23-.16.88-.25 1.02a1.4 1.4 0 0 0-.1.48c-.01.21-.07.49-.12.61-.05.13-.07.25-.05.27.02.02-.03.2-.1.41a4.78 4.78 0 0 0-.26 1.33 3.71 3.71 0 0 0-.3 1.08c-.06.32-.17.76-.26.96-.09.2-.17.54-.19.76 0 .22-.06.6-.12.84l-.14.72c-.02.15-.07.33-.12.38-.17.21.24.22 10.12.22 11.62 0 11.22 0 13.21-.56.23-.07.49-.12.58-.12.1 0 .38-.1.63-.2.26-.12.58-.22.73-.23.14 0 .26-.05.26-.11 0-.05.05-.1.1-.1.07 0 .14-.05.16-.12.03-.07.25-.21.5-.32.47-.22.52-.26 1.18-.86.23-.2.46-.38.5-.38.06 0 .11-.03.13-.07.01-.04.19-.25.39-.46.2-.21.47-.55.6-.75.13-.2.26-.37.3-.38.03-.02.15-.23.26-.46.11-.24.23-.44.26-.44s.12-.17.2-.38c.08-.2.21-.52.3-.7l.2-.56c.02-.13.11-.38.2-.56.48-1.03.37-4.41-.19-5.43l-.2-.38a.9.9 0 0 0-.18-.26.58.58 0 0 1-.11-.27.66.66 0 0 0-.27-.36 1.92 1.92 0 0 1-.68-.64.38.38 0 0 0-.2-.19.46.46 0 0 1-.18-.12 2.96 2.96 0 0 0-.44-.33c-.64-.42-.67-.92-.07-1.24.14-.08.43-.27.65-.43.22-.16.52-.35.66-.42s.38-.25.54-.4c.17-.16.34-.28.38-.28.2 0 1.2-1.3 1.37-1.78.03-.08.1-.14.16-.14.13 0 .27-.25.27-.5 0-.1.08-.32.16-.5.09-.17.16-.38.16-.46 0-.07.08-.26.17-.43.13-.23.14-.33.08-.51-.04-.12-.06-.24-.03-.26.02-.03.05-.25.07-.51l.07-.83a7.14 7.14 0 0 0-.45-2.65 2.52 2.52 0 0 1-.2-.66c-.03-.2-.07-.36-.1-.36-.08 0-.4-.6-.4-.75 0-.08-.04-.13-.09-.13-.04 0-.08-.06-.08-.12s-.1-.19-.24-.28c-.13-.1-.24-.22-.24-.28 0-.06-.12-.16-.28-.24-.15-.07-.28-.17-.28-.21 0-.12-.2-.31-.33-.31-.06 0-.21-.11-.34-.24-.13-.14-.32-.24-.42-.24-.1 0-.19-.04-.19-.08 0-.05-.05-.08-.12-.08-.06 0-.19-.07-.27-.16a1.85 1.85 0 0 0-.66-.28 8.53 8.53 0 0 0-2.58-.45c-.31 0-.71-.06-.89-.12-.69-.22-17.53-.16-17.61.07zm13.66 6.98c1.33.1 1.63.14 1.83.24.11.05.3.13.43.15.12.03.22.1.22.17 0 .06.09.16.2.24.1.07.2.18.2.24s.05.13.12.15c.26.1.4 1.04.2 1.3-.05.04-.06.22-.03.38.03.2.01.34-.07.43a1.6 1.6 0 0 0-.2.34c-.3.6-1.06 1.35-1.4 1.36a.36.36 0 0 0-.22.12.42.42 0 0 1-.29.12c-.1 0-.2.04-.23.08-.09.14-7.28.1-7.4-.04-.08-.1-.04-.37.19-1.34.15-.67.34-1.5.4-1.86.3-1.52.47-1.97.76-2.07.27-.1 4.12-.1 5.29-.01zm-.88 11.56c.2.05.4.13.43.17a.3.3 0 0 0 .18.07c.22 0 1.05.7 1.33 1.14.39.6.1 2.6-.43 2.97a.8.8 0 0 0-.23.34c-.1.25-1 .74-1.93 1.01-.59.18-7.63.12-7.82-.07-.1-.1-.08-.22.1-.9.1-.42.22-.95.25-1.17.03-.21.09-.45.12-.52.1-.18.25-.79.3-1.12a11.16 11.16 0 0 1 .3-1.52c.06-.27.17-.41.35-.45l.3-.07c.24-.09 6.42.02 6.75.12zm-89.98 17.8c-.04.09-.33 1.29-.46 1.9-.05.27-.14.63-.2.8-.06.18-.15.54-.2.8a5.2 5.2 0 0 1-.2.84c-.06.2-.16.63-.23.96-.16.8-.2.92-.28 1.17-.05.11-.08.32-.08.47 0 .15-.04.37-.08.48-.09.22-.1.24-.32 1.24a264.22 264.22 0 0 1-.69 2.92c-.07.26-.16.68-.19.92s-.1.54-.15.66c-.05.12-.16.59-.26 1.04-.22 1.12-.22 1.09-.27 1.17-.02.04-.12.45-.2.9-.1.45-.22.96-.28 1.12-.06.16-.13.46-.16.67-.02.2-.07.43-.11.5-.04.08-.11.37-.17.66-.05.28-.18.84-.29 1.23-.1.4-.2.9-.23 1.12-.03.22-.08.48-.12.56a7.2 7.2 0 0 0-.32 1.36c0 .1-.08.4-.17.69a6.95 6.95 0 0 0-.34 1.4c-.03.08-.13.53-.24 1-.1.45-.24 1-.3 1.2a5.9 5.9 0 0 0-.23 1.03 8.4 8.4 0 0 1-.24.96 4.2 4.2 0 0 0-.16.81c0 .17-.04.32-.08.35-.04.03-.08.14-.08.25a.9.9 0 0 1-.09.36c-.04.09-.13.43-.19.77s-.18.89-.27 1.22c-.08.33-.27 1.1-.4 1.72a128.18 128.18 0 0 1-.6 2.55c-.2.9-.4 1.74-.62 2.56-.09.36-.2.84-.23 1.08-.04.24-.13.6-.2.78-.06.19-.1.34-.07.34.02 0 0 .07-.04.15-.04.08-.1.29-.12.46-.02.17-.11.58-.2.91-.1.33-.2.78-.25 1a6.8 6.8 0 0 1-.2.88 11 11 0 0 0-.2.84c-.03.2-.14.65-.23 1-.1.35-.19.73-.2.84a7.9 7.9 0 0 1-.38 1.55c-.04.05-.07.16-.07.26s-.07.45-.15.77c-.08.32-.18.74-.2.94l-.18.76-.2.7c-.05.16-.1.37-.1.47a5.75 5.75 0 0 1-.3 1.22c-.02.05-.08.28-.1.52-.04.25-.1.53-.14.64-.05.11-.15.53-.23.92-.15.76-.48 2.13-.67 2.8-.07.22-.16.64-.21.92-.05.29-.15.72-.22.96l-.27 1.12-.22.96a150.1 150.1 0 0 0-.53 2.17c-.02.03-.1.37-.16.75a5.1 5.1 0 0 1-.2.83c-.03.08-.1.37-.16.65a185.58 185.58 0 0 1-.18.88c-.1.3-.21.7-.26 1.04-.02.2-.11.57-.19.84-.08.26-.19.74-.25 1.07-.05.33-.16.8-.24 1.03-.09.24-.15.55-.15.7 0 .14-.07.47-.16.74s-.18.62-.2.8c-.1.54-.21 1.09-.28 1.25-.04.09-.16.6-.28 1.12l-.28 1.28c-.4 1.64-.73 3.1-.85 3.72-.07.33-.2.85-.29 1.16-.09.3-.2.76-.23 1s-.12.63-.2.88c-.06.24-.17.69-.23 1a39.29 39.29 0 0 1-.84 3.64c0 .15-.26 1.2-.52 2.11-.07.22-.17.67-.24 1-.07.33-.16.7-.2.81-.16.53-.1.55 2.8.55a5281.66 5281.66 0 0 1 10.03.01l42.46.01c28.1.01 42.22 0 42.22-.06a3.53 3.53 0 0 0 .15-.52l.34-1.28.4-1.64a86.69 86.69 0 0 1 .97-4.15c.04-.22.15-.7.24-1.04a37.69 37.69 0 0 0 .46-2l.12-.6.2-.8c.07-.19.13-.44.15-.55.05-.36.2-.99.33-1.49.08-.26.17-.66.2-.88a25.67 25.67 0 0 1 .67-2.76l.24-1.1c.1-.49.21-.93.24-.97.02-.04.08-.28.12-.54.08-.5.1-.63.19-.83a91.1 91.1 0 0 1 .85-3.67 9.7 9.7 0 0 0 .24-1.14c0-.08.08-.36.17-.63.1-.27.2-.7.23-.94.04-.25.16-.78.27-1.17.1-.4.3-1.15.41-1.68a36.94 36.94 0 0 1 .4-1.64l.23-1.04c.11-.46.18-.87.15-.9-.02-.05 0-.1.05-.13s.14-.3.2-.61a35.65 35.65 0 0 1 .58-2.48c.07-.3.2-.84.27-1.2l.31-1.32a77.47 77.47 0 0 0 .77-3.23c.08-.27.17-.7.2-.95.05-.26.1-.5.12-.54a7 7 0 0 0 .32-1.17c.05-.27.42-1.83.56-2.38l.2-.88c.05-.26.19-.84.3-1.28.1-.44.22-.9.24-1.04.03-.21.14-.73.2-.96.2-.67.43-1.61.56-2.24.04-.22.17-.73.27-1.14.1-.4.22-.89.24-1.07.03-.19.13-.63.24-.98.1-.35.19-.7.19-.8a174.72 174.72 0 0 0 .9-3.8c.05-.24.08-.47.07-.51a5.38 5.38 0 0 0 .34-1.33c.05-.3.1-.5.2-.72.03-.11.1-.4.13-.64s.1-.53.13-.63c.04-.1.14-.52.23-.92.16-.75.42-1.8.76-3.05.11-.4.2-.81.2-.92 0-.1.08-.48.19-.83.1-.36.23-.9.29-1.2.05-.31.13-.6.16-.65.04-.05.12-.39.19-.76s.18-.85.25-1.07c.07-.22.16-.6.2-.84.04-.25.15-.71.24-1.04.09-.33.18-.7.2-.83.02-.13.11-.49.2-.8.08-.32.17-.73.2-.93.03-.2.12-.53.2-.76l.14-.46c.07-.51.28-1.44.42-1.82.04-.11.09-.34.11-.52.02-.18.13-.64.24-1.04.11-.4.2-.81.2-.93s.08-.45.17-.75c.15-.5.32-1.28.33-1.56 0-.06.04-.16.08-.21.05-.06.06-.14.03-.18-.03-.05-.02-.09.03-.09.04 0 .1-.17.13-.38.07-.5.08-.53.26-1.14.09-.29.2-.8.26-1.12.05-.33.13-.63.16-.68.03-.04.1-.3.16-.6.05-.28.15-.71.22-.95.57-2.18.79-2-2.45-2l-11.45-.04c-19.74-.08-83.38-.13-83.42-.07zm51.24.77c45.4.02 45.54.03 45.54.2 0 .09-.1.5-.2.94a149.9 149.9 0 0 0-.92 3.95l-.29 1.2c-.07.33-.16.7-.2.8-.03.11-.09.34-.11.5l-.2.93c-.1.34-.2.8-.25 1.05-.04.24-.14.67-.22.96l-.29 1.16c-.2 1-.42 1.94-.6 2.6-.09.33-.16.67-.16.75 0 .08-.08.4-.17.72-.1.31-.22.8-.28 1.09-.05.28-.16.73-.23 1-.08.26-.15.57-.16.68a7.83 7.83 0 0 1-.39 1.4 5.27 5.27 0 0 1-.22 1.12c-.1.35-.19.78-.2.95-.03.18-.07.4-.11.48-.04.1-.13.4-.2.7-.13.5-.28.68-.45.58-.14-.09-1.87-.14-7.1-.24l-3.65-.07c-.88-.02-3.08-.04-4.89-.04-3.3 0-3.3 0-3.57-.29-.15-.15-.3-.28-.35-.28-.04 0-.14-.07-.22-.16-.08-.08-.18-.16-.23-.16a11.61 11.61 0 0 0-1.89-.65 10 10 0 0 0-1.2-.15c-1.47-.11-2.24-.2-2.32-.29-.1-.1-.18-1.1-.15-1.8 0-.2-.01-.43-.04-.51-.02-.09-.01-.35.02-.58.05-.27.04-.51-.01-.65a.6.6 0 0 1-.02-.37c.04-.12.06-1.57.03-2.75v-.36a44.2 44.2 0 0 0-.1-3.07c-.2-.2.34-.4 1.4-.53.21-.03.55-.14.77-.24.2-.11.52-.24.68-.28.17-.05.39-.16.48-.25.1-.08.24-.2.3-.27.2-.19.32-.65.2-.8-.12-.18-.39-.1-.5.16-.06.11-.16.2-.25.2-.08 0-.25.1-.37.21a2.2 2.2 0 0 1-.72.35 7.6 7.6 0 0 0-.65.22c-.08.04-.4.1-.7.12-1.18.1-1.18.1-1.13 1.8.04 1.52.03 1.63-.22 1.72-.17.07-.1.3.1.3.26 0 .21 3.64-.05 3.86-.34.3-.3.78.06.78s.2 1.02-.21 1.46c-.38.4-.37.7.01.7.06 0 .11.03.11.07 0 .05.08.16.17.25.2.2.3.74.16.9-.32.39-.07 1.6.3 1.45.45-.17.9-.14.9.07 0 .15-.06.21-.23.24-.49.1-2.22-.01-2.04-.13.06-.04.1-.18.1-.32s0-.33.03-.43c.03-.13-.05-.25-.36-.5-.28-.25-.39-.4-.37-.51a.5.5 0 0 0-.05-.28c-.03-.05-.06-1.98-.06-4.28 0-2.55-.03-4.19-.08-4.22-.04-.03-.05-.12 0-.24.2-.51.09-1.35-.17-1.35-.32 0-.43-.13-.27-.31.15-.16-.13-.43-.62-.62-.23-.09-.21-.38.04-.57.43-.35.13-.69-.42-.48a8.76 8.76 0 0 1-2.73-.07 5.78 5.78 0 0 1-.7-.07c-.5-.11-.62.05-.42.56.04.11 0 .1-.24-.05-.22-.14-.3-.24-.3-.41 0-.17-.05-.25-.21-.32-1.24-.55-.63-.74 1.38-.42 1.24.2 3 .14 3-.1 0-.1.03-.17.07-.14.04.03.06.1.04.15-.06.15.21.25.3.11a.47.47 0 0 0 .06-.2c0-.17.15-.1.18.08.03.24.2.27.26.04.05-.18.05-.18.18 0 .17.24.26.23.26-.04 0-.2.52-.32.8-.18h.12l.8-.01c.4 0 .76-.03.8-.07.05-.03.42-.08.84-.11a4.4 4.4 0 0 0 1.12-.17c.3-.01.88-.18 1.21-.36.16-.09.36-.16.44-.16.98 0 1.53-1 .68-1.22-.24-.07-.37-.15-.42-.28-.04-.1-.14-.26-.23-.35-.09-.1-.2-.3-.26-.44-.05-.15-.12-.27-.15-.27a.82.82 0 0 1-.26-.2c-.11-.1-.25-.2-.32-.2a2.2 2.2 0 0 1-.45-.12 8.9 8.9 0 0 0-2.42-.37c-.26 0-.49-.05-.54-.1-.1-.12-2.2-.1-2.92.03l-1.26.2a4.8 4.8 0 0 0-1 .2c-.07.03-.3.1-.51.13-.21.03-.38.08-.38.12 0 .04-.1.07-.2.07s-.2.03-.22.06c-.01.04-.3.2-.64.37-.35.18-.64.38-.67.46-.02.09-.07.15-.1.15-.07 0-.72.58-1.14 1-.1.11-.25.2-.32.2-.1 0-.1.02 0 .08.09.05.1.08.03.08-.39 0-.03 1.15.4 1.3.08.04.14.14.14.25 0 .1.02.21.06.24.03.04.1.2.14.35.04.16.15.32.24.37.08.05.18.13.21.17.22.33.48.52.87.64.24.07.56.2.72.28.16.09.53.17.84.2 1.34.11 1.68.3 1.57.84-.03.15-.05.5-.04.76.05.96.04 2.75 0 2.83a.1.1 0 0 0 .02.12c.05.03.07.5.06 1.13v1.11c.06.05.1 1.36.1 2.66 0 1-.1 1.21-.58 1.08-.3-.09-.61-.05-.61.08 0 .04-.14.06-.3.06a7.67 7.67 0 0 0-3.23.4 4.4 4.4 0 0 0-1.44.73c-.42.33-5.62.44-6.09.13a.85.85 0 0 0-.36-.14c-.07 0-.25-.06-.38-.13a4.17 4.17 0 0 0-1.23-.32 2.6 2.6 0 0 1-.47-.15c-.17-.09-.24-.08-.48.03-.25.12-.28.12-.37 0-.08-.1-.27-.14-.93-.17-1.5-.07-1.36.25-1.36-2.84v-4.9c-.02-2.6-.02-2.47.1-2.47.07 0 .26-.07.43-.15.17-.08.45-.17.61-.2.16-.03.49-.14.72-.24.23-.1.54-.22.69-.25a.7.7 0 0 0 .38-.25c.07-.1.18-.19.23-.19.2 0 .7-.8.65-1-.09-.34-.77-.3-.77.05 0 .09-.42.55-.5.55-.05 0-.15.06-.22.12a1.8 1.8 0 0 1-.65.24 4.5 4.5 0 0 0-1.18.4 1.8 1.8 0 0 1-.43.09c-.2.01-.37.07-.42.15a3.6 3.6 0 0 1-.26.35c-.19.22-.22.33-.1.33.04 0 .08.32.1.72.01.4 0 .72-.02.72s-.02.24-.01.54c.01.3.02 1.02.01 1.62a337.22 337.22 0 0 0 .02 5.17c.03.1.03.18 0 .18-.07 0-.06.5.02 1.04.14.96.14 1.04 0 1.1-.31.1-.37.4-.1.44.15.02.18.07.16.26-.04.5.3.86.5.52a.1.1 0 0 1 .13-.03c.05.02.12.01.18-.02.15-.11.51-.13.58-.02.16.27-.8.57-1.14.35-.13-.09-.23-.1-.39-.04-.28.1-.57.1-.64 0a.83.83 0 0 1 .01-.76c.16-.24.1-.44-.14-.44-.58 0-.75-.71-.7-2.96.02-.4.01-.57 0-.91l-.01-1.36c0-.62-.01-1.38-.03-1.68a50.3 50.3 0 0 1-.02-3.2c.01-.88.01-.88-.29-.9-.3-.03-.46-.34-.17-.34.29 0 .06-.27-.3-.36-.75-.19-.84-.5-.21-.73.46-.17.55-.3.31-.43-.19-.1-.51-.11-2.36-.1-1.83.02-2.85-.05-3-.19a.53.53 0 0 0-.31-.1c-.39 0-.91-.47-.55-.5l.34-.03a5.98 5.98 0 0 1 1.55.03c.03.03.2.07.37.07l.9.04c.52.03.6.01.7-.13.1-.15.12-.15.12-.02 0 .26.35.13.4-.15.03-.13.06-.18.07-.1.02.3.4.5.4.22 0-.21.15-.2.18.01.04.25.23.3.23.06 0-.35.14-.45.21-.15.09.32.24.4.28.15.04-.26.23-.29.23-.04 0 .29.2.27.3-.03.1-.29.26-.31.26-.04 0 .26.2.26.27 0 .06-.23.2-.2.2.05 0 .19.2.2.31.02.07-.12.1-.13.22-.03.11.1.14.1.23-.02.06-.09.16-.12.24-.09.1.04.15 0 .18-.12.06-.22.13-.21.28.01.12.17.14.17.27.05.09-.07.2-.11.25-.1.06.03.13-.01.15-.08.04-.1.18-.13.72-.13.36 0 .69-.03.71-.08.03-.04.09-.06.13-.04.04.03.19 0 .33-.07.15-.07.43-.14.64-.17.21-.03.4-.09.43-.13.02-.04.15-.07.28-.07.81 0 1.8-1 1.11-1.14-.24-.05-.8-.51-.8-.66 0-.41-1.05-1.12-1.84-1.24a7.45 7.45 0 0 0-2-.25c-.54 0-1.06-.05-1.14-.09a10.6 10.6 0 0 0-2.33-.02c-1.04.1-1.36.13-1.78.12-.22 0-.43.03-.46.08-.03.05-.22.09-.43.09-.2 0-.44.05-.53.12a.91.91 0 0 1-.46.11c-.17 0-.3.04-.3.08 0 .03-.1.09-.22.12a5.1 5.1 0 0 0-1.46.98c0 .05-.03.1-.07.12-.04.01-.12.13-.18.26-.06.14-.3.36-.51.5-.8.55-.85 1.48-.1 1.84.2.1.38.23.38.28 0 .1.36.83.56 1.16.07.1.16.18.22.18.05 0 .1.03.1.06 0 .21 2.24.8 3.03.81.87 0 .79-.5.82 5.2.03 5 .03 5-.57 5.03-.33.01-.64.06-.7.1-.06.05-.23.07-.41.04a.9.9 0 0 0-.46.02 4.9 4.9 0 0 1-.8.22l-1.11.24c-.76.18-5.6.17-9.32-.01-.41-.02-1.58-.05-2.6-.06-1.83-.02-1.83-.02-1.85-.7l-.06-4.97c-.05-4.87-.1-4.47.66-4.62a6.76 6.76 0 0 0 2.25-.83c.2-.08.44-.24.5-.35.04-.05.14-.1.23-.1.08 0 .15-.05.15-.12 0-.06.11-.22.24-.36.32-.32.32-.56 0-.56-.12 0-.25.04-.27.08-.03.04-.27.1-.53.13-.47.05-.48.06-.48.3 0 .34-.14.5-.51.57a2.4 2.4 0 0 0-.55.17c-.13.07-.28.1-.34.08-.06-.02-.11 0-.11.04 0 .05-.15.07-.35.06-.57-.03-1.54.45-1.47.74.02.08.01.15-.03.15-.03 0-.03.1 0 .23.04.13.05.26.03.28-.05.05-.05.98 0 4.2 0 1.24 0 2.3-.04 2.35-.03.05-.02.13.02.18.06.08.11 1.9.08 2.83l.04.54c.04.3.03.42-.04.42a.8.8 0 0 0-.31.17c-.2.15-.27.16-.56.08-.47-.13-.54-.23-.56-.86 0-.3-.05-.64-.1-.76a.59.59 0 0 1 0-.47c.06-.17.06-.3 0-.4a2.95 2.95 0 0 1-.07-.86c.04-1.58-.03-4.78-.1-4.92-.05-.1-.04-.24.05-.45.06-.17.1-.32.07-.35a5.27 5.27 0 0 1-.05-.9c-.01-.87-.01-.87-.25-.9-.34-.03-.42-.14-.25-.33.2-.2.08-.35-.4-.48-.4-.11-.54-.48-.17-.48.52 0 .73-.59.22-.61l-.8-.04c-.29-.01-.6.02-.67.07-.12.06-.23.05-.42-.03-.18-.07-.28-.08-.32-.02-.03.05-.17.06-.34.04-.16-.03-.7-.07-1.21-.08-1.05-.04-1.6-.15-1.98-.38-.61-.38-.24-.41 3-.27 1.45.07 1.46.06 1.46-.1 0-.1.03-.2.08-.22.04-.03.08.04.08.15 0 .3.2.41.3.17.1-.22.26-.27.26-.08 0 .07.05.12.12.12.07 0 .12-.07.12-.2 0-.12.04-.2.12-.2.06 0 .12.07.12.16 0 .2.14.28.29.15.1-.08.13-.08.19 0 .08.15.32.06.32-.12 0-.12 0-.12.14 0 .2.18.3.17.37-.05.04-.1.07-.14.1-.08.05.12.35.14.35.02 0-.15.17-.08.21.08.07.26.27.2.27-.08 0-.25.13-.31.3-.14.08.08.12.08.17-.01.06-.1.13-.1.36-.03.22.07.34.06.5-.01.13-.06.66-.17 1.19-.24a6.24 6.24 0 0 0 1.52-.37c.15 0 .53-.16 1.3-.54.53-.26.55-.82.02-.82-.14 0-.4-.26-.97-1-.15-.2-.33-.36-.4-.36-.06 0-.16-.06-.21-.15-.05-.08-.23-.17-.4-.2a1.16 1.16 0 0 1-.47-.2 2.8 2.8 0 0 0-1.35-.33c-.19 0-.44-.03-.57-.07-.13-.05-.56-.1-.95-.12-1.7-.1-2-.1-2.23.01-.16.08-.35.1-.6.07a1.45 1.45 0 0 0-.61.03c-.13.05-.5.1-.8.12-.3.02-.7.08-.88.13l-.99.24c-.36.09-.8.23-.97.32-.17.08-.38.15-.47.15-.08 0-.26.12-.38.27-.44.5-.67.8-.67.86 0 .04-.12.12-.26.19s-.33.22-.42.33c-.09.12-.26.32-.39.44-.2.22-.22.27-.2.68.05.5.08.53.85 1.04.34.22.42.32.42.5 0 .13.08.3.2.41.11.1.2.23.2.29 0 .05.09.12.2.14.1.03.23.12.28.21.05.09.14.16.2.16.07 0 .18.03.26.07.52.28 1.34.48 2.06.52.97.05.92-.06.91 2 0 1.65.07 7.17.11 7.72.02.3-5.49.43-8.13.2a6.89 6.89 0 0 0-1.22-.03 3.7 3.7 0 0 1-.84.01c-.32-.02-1.3-.03-2.18-.03a6.82 6.82 0 0 1-1.7-.08c-.08-.06-.13-.06-.22.01-.07.06-.12.07-.12.03 0-.05-1.7-.11-4.22-.14-.33 0-.58-.04-.58-.08 0-.08.16-.77.48-2.08.1-.4.2-.9.24-1.1.04-.2.14-.64.23-.96.09-.32.2-.78.24-1.02.05-.24.14-.64.21-.88.07-.24.16-.62.2-.84.04-.22.13-.6.2-.84s.17-.7.23-1c.11-.56.32-1.39.62-2.52.09-.33.17-.7.2-.84.05-.33.4-1.82.67-2.9.13-.5.24-.98.24-1.08 0-.1.05-.35.1-.54.14-.42.2-.7.48-1.87l.8-3.37c.08-.33.08-.33 9.29-.3 5.06.02 23.66.04 41.34.05zm22.41 24.82c.35.67-.08 2.02-.64 2.02-.03 0-.1.1-.14.2-.05.12-.14.2-.23.2-.24 0-.55.3-.62.58-.03.14-.14.36-.24.49-.1.12-.2.25-.2.28-.05.23-.07.6-.07 1.15 0 .63-.06 1.1-.18 1.23-.12.13-.13.59-.14 4.55 0 4.65-.04 6.75-.11 7.06-.04.17-.06.73-.04 1.37 0 .36-.08 1.83-.12 2.04-.02.09 0 .41.04.72.14 1.04.15 1.43.18 5.88.02 2.9 0 4.47-.05 4.53a.44.44 0 0 0-.03.31c.03.11.02.32-.02.46a34.4 34.4 0 0 0-.16 5.52c-.03.02-.04.55-.03 1.18 0 .63.02 1.18.02 1.23l-.05.59c-.03.31-.02.52.03.56.12.07.14.26.05.49a5.6 5.6 0 0 0-.04 1.22c.03.57.02 1.05 0 1.07-.04.02-.06.26-.05.53.01.27-.01.9-.05 1.37l-.09 1.08c0 .11-.06.3-.12.43-.1.22-.1.24.06.38.14.1.18.22.18.5 0 .59.33 1.23.72 1.38.17.07.33.18.35.24.08.2.45.14.45-.08 0-.1-.05-.2-.1-.23-.09-.03-.1-.16-.05-.55.03-.28.04-.72.02-.99-.08-.9-.06-4.59.03-4.7.04-.05.06-.17.04-.25a2.62 2.62 0 0 1 .06-1.12c.06-.08.05-.14-.02-.22-.16-.15-.08-.3.13-.3.2 0 .92.89.93 1.14 0 .08.09.35.2.6.1.26.21.66.24.88.03.23.08.42.11.42s.07.14.08.32c0 .18.05.41.09.52.04.12.04.2 0 .24-.05.03-.05.1-.01.18.04.07.1.57.12 1.1.03.52.1 1.12.14 1.31.2.84.18 1.14-.08 1.5-.3.4-.26.4.58.32.75-.08.79-.1.7-.43-.04-.14-.05-.3-.01-.35.03-.06.05-.38.03-.7-.03-.59-.03-.9 0-2.26.03-1.38.4-1.15.57.34.03.26.08.46.12.46.03 0 .08.08.1.17.03.1.11.18.2.2.32.1.64 1.4.4 1.69-.16.2-.04.46.22.49.33.03.46-.2.36-.65a4.7 4.7 0 0 1 0-1.78c.1-.4.09-.5-.1-.78-.09-.11-.08-.15.02-.21.09-.06.1-.1.02-.17-.07-.07-.06-.14.03-.29.13-.19.12-.35-.02-1.25-.05-.26-.03-.31.11-.35.19-.05.28-.3.15-.42-.17-.17-.11-1.3.09-1.52.1-.1.18-.23.18-.28 0-.05.07-.13.16-.18.08-.06.16-.15.16-.2 0-.16.34-.46.52-.46.55 0 .59-.88.05-1.14-.12-.06-.21-.16-.22-.23 0-.52-.5-.48-.74.05-.1.22-.22.41-.26.42-.04.02-.07.24-.07.5 0 .3-.04.48-.1.48-.04 0-.06.05-.04.12.03.07-.02.15-.11.2-.1.05-.15.14-.12.2.04.1-.23.52-.34.52-.12 0-.01-.7.15-1 .08-.18.16-.45.16-.62 0-.17.05-.4.12-.5a.55.55 0 0 0 .08-.43c-.04-.15-.01-.26.07-.33a.42.42 0 0 0 .13-.29c0-.1.03-.2.06-.22.07-.05 0-.72-.1-.95-.06-.13.3-.3.4-.2.03.03.2 0 .38-.07.38-.13.8-.04 1.03.23.08.09.27.2.44.26.23.08.31.15.33.31.01.12.06.2.1.2.04 0 .17.18.29.39.12.2.24.4.28.42.03.03.05.22.04.44-.01.36 0 .4.14.37.17-.03.3-.17.24-.26-.02-.03.03-.1.1-.16.12-.1.13-.1.07.05-.1.28-.28.95-.36 1.37-.04.23-.15.65-.24.94-.09.3-.2.77-.25 1.07-.05.3-.12.57-.15.62-.06.08-.2.72-.28 1.24-.02.15-.1.47-.17.71l-.32 1.28a48.3 48.3 0 0 1-.57 2.44c-.07.2-.06.16-.25 1.14-.1.45-.2.88-.25.97-.05.09-.09.3-.1.47 0 .26 0 .27-.06.1-.04-.14-.1-.2-.21-.17-.16.02-.77.05-2.23.1-.86.03-.88.03-.9-.15-.03-.16-.07-.18-.49-.16a1.7 1.7 0 0 1-.85-.18c-.22-.1-.49-.21-.6-.23-.24-.06-.4-.29-.27-.41.07-.07.27-.04.77.11.38.12.76.21.85.21a.9.9 0 0 1 .65.35c.25.3 3.36 0 3.47-.34.15-.46.06-.9-.15-.7-.1.1-1.82.13-2.68.05-.07 0-.26.01-.43.05a.76.76 0 0 1-.57-.1c-.26-.13-.28-.13-.42 0-.2.17-.45.17-1.06-.03a4.2 4.2 0 0 0-.6-.16c-.06 0-.15-.06-.2-.13-.09-.09-.2-.11-.41-.08-.25.04-.34.02-.54-.15-.23-.2-.26-.2-.37-.09a1.7 1.7 0 0 1-.22.19c-.43.28-.23.69.37.77.95.13 1.08 1 .15 1.01-.1 0-.2.03-.22.08-.54.88-1.18-.25-1.08-1.92a25.72 25.72 0 0 1 .04-2.32c.02-.46.04-1.18.04-1.6 0-.94 0-.74.04-1.91.02-.55.06-4.37.08-8.48l.05-9.47v-2.12a118.89 118.89 0 0 1-.02-3.12v-15c.03-.34-.06-1.95-.1-2.02-.03-.05-.02-.16.03-.25.07-.14.06-.18-.12-.26-.22-.1-.5 0-.47.15l.07.3c.05.18.03.23-.12.27-.15.04-.17.07-.11.29.03.14.05.37.05.53-.03 1.05 0 2.64.03 2.87.03.17.02.29-.05.33-.07.04-.07.1-.01.21a.8.8 0 0 1 .03.43l-.04.4a15.48 15.48 0 0 1 .03 1 255.55 255.55 0 0 0 .04 6.48c.02 1.53.04 4.7.04 7.03 0 2.72.04 4.27.09 4.34a11.66 11.66 0 0 0 0 2.84c.06.16.06.24-.01.33-.06.06-.1.32-.09.58.02.76.02 1.4.01 1.7v1.52a962.24 962.24 0 0 1-.1 15.95l.05.47c.06.43 0 .53-.34.53-.1 0-.17.03-.16.06.03.1-.2.82-.26.82-.1 0-.53.92-.76 1.64-.23.72-.27 2.2-.06 2.2.06 0 .1.04.1.1a2 2 0 0 0 .28.52c.16.22.28.47.28.54 0 .23.55.93.8 1.01.17.06.27 3.89.12 4.26a.56.56 0 0 0-.02.44c.07.2.08 1.4.02 3.13-.03.86-.03.86.18.9.43.08.53-.09.43-.71a2.1 2.1 0 0 1-.01-.6c.02-.1.04-1.59.04-3.28 0-3.24.13-3.62 1.03-3 .1.07.23.13.3.13.09 0 .15.03.15.08v.14c0 .03-.2.07-.46.1-.46.04-.46.04-.45.92.02 1.56.1 3.9.14 4.49.03.34.02.6-.03.62-.05.03-.04.12.02.23.05.1.08.3.07.44-.04.46.31.6 1.08.45.23-.05.4-2.68.2-2.96a2.19 2.19 0 0 1-.01-.68 5.88 5.88 0 0 0 0-1.24v-1.51l.03-.9c.01-.66.01-.66.23-.66.11 0 .23-.03.25-.07.03-.04.25-.07.5-.08.26 0 .52-.05.64-.13.3-.2 1.1-.14 1.1.08 0 .12-.05.16-.23.18a.85.85 0 0 0-.42.2c-.1.08-.29.18-.43.2-.36.08-.36.39 0 .5.12.05.16 3 .06 3.11-.05.05-.05.08 0 .08.04 0 .08.56.09 1.34.02 1.36-.04 1.62-.33 1.62-.34 0-.58.77-.27.84.2.05 1.18-.23 1.26-.36.03-.05.05.07.05.26-.01.34-.01.34-5.3.33-5.32-.01-5.64-.02-5.48-.21.05-.06.09-.32.1-.58.01-.8.02-1.49 0-2.04v-2.24c-.02-.53-.02-2.46-.02-2.75v-2.6c0-3.1 0-2.8.1-3.64.07-.64.07-.73-.05-.81-.12-.09-.12-.12-.01-.33.07-.16.1-.36.07-.59a45.56 45.56 0 0 1 .07-4.83c-.02-.65.04-10.37.08-13.35a2595.92 2595.92 0 0 0 0-7.23 380.2 380.2 0 0 0 .06-11.64c-.05-3-.02-6.27.07-6.55.21-.67.2-.68-1.27-.64-.93.03-1.03.01-1.1-.12-.12-.22.24-.3 1.52-.34a5.33 5.33 0 0 0 1.25-.13c.24-.13.25-.49.02-.55a.22.22 0 0 1-.16-.2c0-.14-.06-.17-.36-.15-.12.01-.19-.06-.26-.26-.1-.28-.64-.77-.86-.77-.16 0-.46-.16-.53-.29a.78.78 0 0 0-.32-.16c-.96-.2-1.21-.55-.9-1.22.22-.45.28-.47 1.23-.51.43-.02.53-.05.55-.16.05-.27-.18-.39-.64-.32-.23.03-.62.04-.86.02a3.49 3.49 0 0 0-.76 0c-.18.03-.47.04-.64.03l-1.2-.07a29.82 29.82 0 0 1-2.58-.17c-.58-.09-1.04.2-.53.33.48.12.6.67.22 1.09-.06.06-.11.28-.11.48 0 .2-.04.4-.08.43-.04.04-.08.25-.1.47 0 .21-.06.4-.11.42-.11.05-.27.44-.24.6.09.42.16.54.4.63.41.17.47.24.33.4-.1.1-.12.35-.13 1.12 0 .91.07 5.53.1 6 .01.34.01 1.67 0 2.01a56.38 56.38 0 0 0 0 2.14 570.75 570.75 0 0 1 .13 6.56c0 1.16.03 2.3.05 2.5.02.23 0 .47-.06.55-.06.1-.06.2 0 .4a3 3 0 0 1 .08.82c0 .31.02.63.06.71.04.09.02.24-.03.38-.06.13-.07.3-.04.37.03.08.06.36.06.62l.02 3.2.04 3.97c0 1.22.04 2.4.07 2.62.08.5-.04.73-.4.73-.12 0-.24.03-.27.08-.14.22-.33.07-.35-.27 0-.2-.06-.48-.12-.62a2.98 2.98 0 0 1-.12-.87l-.04-1.36c-.02-.42-.04-1.59-.05-2.6 0-1.16-.04-1.87-.1-1.94-.06-.07-.05-.13.02-.21.09-.12.04-2.7-.05-2.87-.02-.03 0-.06.05-.06s.07-.06.04-.16c-.03-.08-.07-.3-.08-.48a1.61 1.61 0 0 0-.07-.39c-.03-.03-.01-.25.02-.48.04-.22.04-.43.01-.44a1.65 1.65 0 0 1 0-.58c.04-.3.04-.58.01-.63-.03-.04-.06-.6-.07-1.23l-.04-1.83c-.02-.36 0-.68.03-.7.07-.04.02-.75-.06-1.02-.06-.18-.1-.6-.13-1.1-.02-.44-.3-.55-.47-.18-.07.13-.19.24-.3.25-.31.05-.78-.6-.58-.8.12-.12.11-.3-.01-.3-.06 0-.16.07-.24.16-.19.22-.36.2-.47-.04-.14-.3-.39-.19-.39.17 0 .1-.03.19-.07.19-.11 0-.15-.39-.08-.7.04-.17.07-.48.07-.69 0-.37.01-.39.2-.35.11.02.24-.01.3-.07.3-.36.94 0 .94.53 0 .21.03.25.18.22.18-.02.18-.04.16-1.08-.02-1.21.15-1.52.37-.65.13.5.27.56.58.26.29-.27.3-1.3 0-2.3a8.66 8.66 0 0 1-.05-2.66 7.48 7.48 0 0 1-.11-1.6l-.05-2.14c-.01-.44-.03-1.41-.03-2.15-.01-1.1-.04-1.4-.14-1.57-.12-.2-.12-.25.04-.68.09-.26.15-.5.13-.53a6.44 6.44 0 0 1-.08-.87 6.22 6.22 0 0 0-.16-1.37c-.02-.24-.07-.44-.11-.45a1.56 1.56 0 0 1-.28-.45 1.2 1.2 0 0 0-.47-.56c-.68-.36-.9-.53-.98-.76-.05-.17-.04-.19.1-.13a5 5 0 0 0 .74.13c.33.04.66.11.74.15.08.05.23.08.34.08.1 0 .21.03.23.07.03.04.33.1.67.12l.86.08c.3.03 1.53.12 2.37.17.5.02.62 0 .66-.09.04-.1.06-.1.18.01.13.13.15.13.23 0 .12-.15.2-.16.2 0 0 .07.07.12.16.12.1 0 .16-.05.16-.13 0-.1.04-.11.18-.07.1.03.24.05.32.05.07 0 .14.05.14.12 0 .13.17.15.3.02.07-.07.12-.07.22.01.17.14.36-.08.36-.41 0-.13.03-.23.08-.23.04 0 .08.14.08.32 0 .23.03.32.12.32.06 0 .12-.04.12-.09 0-.05.09-.06.26-.02.37.08 1.6.1 1.7.02a3.99 3.99 0 0 1 1.38-.15c.07 0 .34-.03.6-.08l.87-.15a9.48 9.48 0 0 1 1.75-.33 13.4 13.4 0 0 0 1.71-.29c.89-.17 1.23-.28 1.33-.4.05-.06.15-.1.22-.1.08 0 .3-.27.52-.65.4-.67.67-.82.84-.5zm-22.7 1.65c.24.3-.32 1.05-.96 1.3-.2.07-.4.18-.48.24a.48.48 0 0 1-.26.11c-.08 0-.13.06-.13.17 0 .1-.06.18-.15.2-.19.05-.24.36-.3 1.7a9.8 9.8 0 0 1-.08 1.04c-.07.08-.27-.18-.26-.34.01-.1-.01-.56-.05-1.03-.06-.85-.06-.85.15-1.04.32-.3.28-.48-.09-.41-.46.08-.56.16-.62.49-.03.16-.1.38-.17.48-.23.36-.3 3.5-.1 3.76.07.07.06.16 0 .32-.07.18-.21 1.96-.17 2.22.04.23.1 3.8.12 7.67.01 2.42.04 4.56.06 4.76.01.2 0 .45-.02.56-.03.1-.03.3 0 .44.03.13.02.32-.01.41a8.11 8.11 0 0 1-.02 1.98 8.73 8.73 0 0 1 .12 1.78c0 .67.03 1.24.07 1.26.03.02.03.18 0 .34a1.3 1.3 0 0 0-.03.46 50.75 50.75 0 0 1 .1 4.64 166.39 166.39 0 0 0 .03 4.32c.02.3 0 .66-.05.79-.05.16-.04.28.02.38.07.1.1.75.09 2.14-.01 2 .02 2.25.3 2.43.06.04.08.2.05.44l-.05.48c0 .05-.05.1-.11.1s-.15.08-.19.2c-.04.1-.11.2-.16.2-.04 0-.16.08-.25.2-.1.1-.23.2-.29.2-.13 0-.5.38-.5.5s-.23.58-.42.85a.78.78 0 0 0-.14.36.8.8 0 0 1-.13.36c-.12.17-.21.53-.3 1.2l-.11.46c-.06.18-.06.29.02.4.06.08.14.37.19.64a2 2 0 0 0 .25.72c.09.1.16.27.16.36 0 .08.04.2.08.24.56.7.9.89 1.17.62.08-.08.69.07.83.2.13.14-.04.28-.4.34-.31.06-.36.1-.38.28-.05.36.3.46.75.22.37-.2 1.23-.28 1.28-.12.04.14-.2.4-.3.31-.28-.29-1.14.19-.9.5.08.13.08.17-.06.32-.11.12-.16.28-.16.56 0 2.3.04 3.95.1 3.95.04 0 .06.19.03.42-.06.57-.06.81-.02 1.44.02.3 0 .56-.02.58-.04.02-.05.15-.03.3.04.28.1 2.56.11 4.52.01 1.22.01 1.22-2.01 1.22-2.93 0-4.84-.02-4.7-.06.21-.06.3-.41.3-1.08 0-.39.03-.66.09-.74.05-.07.08-.15.05-.2a12.3 12.3 0 0 1 0-2.4c.03-.6.05-1.16.04-1.24a4.85 4.85 0 0 1 0-1.2c.03-.1.02-.43-.02-.75a2.52 2.52 0 0 1-.03-.72 18 18 0 0 0 .02-2.65c-.06-.17-.05-.37.04-.98.06-.4.05-.58-.01-.66-.07-.08-.07-.29 0-.8.06-.52.06-.72-.01-.8-.1-.13-.1-.1-.04-2.2l.04-1.56-.02-1.36c-.01-.7 0-1.32.05-1.37.04-.06.04-.3-.01-.6-.08-.54-.08-.66.02-1.13.04-.18.03-.34-.02-.4a7.52 7.52 0 0 1-.02-1.7c.03 0 .08-2.56.12-6.83.05-4.86.05-4.73 0-4.9a.3.3 0 0 1 .04-.25c.07-.08.07-.23.02-.52a2.94 2.94 0 0 1-.02-.78c.03-.21.04-1.03.03-1.82a49.36 49.36 0 0 1-.02-2.72l.03-1.04c.05-1.03.05-.89.03-8.48 0-3.2-.03-5.87-.05-5.91-.09-.15-.07-.4.04-.67.18-.44.11-.85-.16-.88-.17-.02-.23.02-.3.18-.04.11-.13.2-.2.2-.14 0-.16-.16-.02-.3.17-.16-.04-.2-1.11-.17-.47 0-.65-.05-.52-.18.05-.05.4-.1.79-.11 2.04-.07 2.48-.27 1.59-.7a.76.76 0 0 1-.4-.38.42.42 0 0 0-.29-.29 2.2 2.2 0 0 1-.52-.26 7.45 7.45 0 0 0-1.52-.8c-.44-.16-.54-.5-.37-1.3.09-.46.1-.48.4-.51.84-.1 1.45-.28 1.45-.43 0-.08-.28-.25-.33-.2-.03.03-2.13.14-2.46.13a141.87 141.87 0 0 1-3-.13c-.7-.03-1.4-.08-1.54-.12-.18-.05-.28-.04-.34.04-.12.14-.02.35.2.4.38.1.54.64.32 1.07-.06.12-.13.31-.15.42l-.17.63a5.34 5.34 0 0 0-.2 1.25c-.08.4.37.9.8.9.09 0 .16.04.16.09 0 .04-.12.08-.27.08-.33 0-.49.16-.42.44.03.13.02.2-.05.2-.08 0-.08.01 0 .06.1.07.14.6.12 1.82a100.02 100.02 0 0 1 .06 3.96 551.89 551.89 0 0 0 .24 15.06c-.03.47-.04 1.29-.02 1.76.02.53.02.69.02 1.54 0 .31.03.59.06.61.04.03.06.18.03.35l-.03.5v.68a23.9 23.9 0 0 0 .02 1.88l.04 1.84c.03 1.48.04 2.74.04 3.32-.02 1.62-.01 1.76.03 2.56.1 1.5.13 4.5.05 4.55-.04.02-.23.08-.42.11-.19.04-.4.1-.47.13-.11.04-.13 0-.12-.32a3.2 3.2 0 0 0-.09-.79c-.06-.22-.1-.7-.1-1.05.01-.35 0-1.23-.03-1.95-.03-.73-.05-2.25-.06-3.38 0-1.23-.03-2.08-.08-2.1-.04-.03-.05-.26-.02-.57.03-.35.02-.54-.05-.63-.07-.08-.08-.21-.02-.5.05-.2.07-.55.05-.77a5.52 5.52 0 0 1-.03-.49 3.8 3.8 0 0 0-.05-1.43c-.07-.1-.08-.2-.03-.3a.54.54 0 0 0 .04-.33c-.07-.28-.1-.95-.04-.98.1-.06 0-1.67-.11-1.86-.04-.06-.03-.15.02-.21.06-.07.07-.39.04-.98a5.77 5.77 0 0 1 .05-1.86c.04-.08.02-.18-.05-.28-.14-.19-.15-.63-.02-.87.12-.23.1-.82-.06-1.11-.09-.17-.1-.27-.04-.33.05-.06.06-.23.04-.4a.69.69 0 0 1 .1-.52c.12-.22.13-.26 0-.65-.09-.25-.11-.45-.07-.51.12-.16.09-.7-.07-1.06-.1-.26-.13-.4-.07-.6.17-.6-.13-.69-.6-.2-.39.4-.57.46-.67.2-.08-.21-.03-.47.08-.47.04 0 .06-.03.03-.07-.02-.04.01-.12.08-.17.06-.06.1-.13.08-.16-.02-.04.01-.1.08-.16a.36.36 0 0 0 .12-.25c0-.08.03-.16.07-.18.03-.03.07-.18.07-.34.02-.35.06-.41.37-.44.2-.03.24-.08.34-.46.06-.24.18-.55.26-.68.14-.23.14-.28.04-.59-.09-.26-.1-.38-.03-.5.1-.2.04-.55-.16-.9-.12-.23-.14-.6-.15-3.28-.01-1.66-.05-3.1-.09-3.2a1.2 1.2 0 0 1 .02-.56c.07-.3.06-.43-.04-.71-.22-.58-.25-.99-.1-1.21.07-.12.1-.24.08-.3-.1-.15-.14-.81-.05-.86.05-.04.05-.17-.02-.4-.07-.26-.06-.37.01-.5.16-.25.14-1.41-.03-1.6a.34.34 0 0 1-.08-.28c.03-.07.02-.17-.02-.22-.04-.05-.1-.2-.13-.33a1.09 1.09 0 0 0-.22-.42c-.09-.1-.14-.23-.11-.3.06-.15-.39-.6-.6-.6-.08 0-.2-.07-.25-.16-.05-.09-.14-.16-.2-.16-.14 0-.13-.23.01-.29.07-.02.32 0 .56.05.24.05.62.1.84.1.24 0 .43.04.47.1.1.15.34.22.94.25.3.02.74.07.96.1.22.04.84.06 1.38.04.54-.02.98 0 .98.03 0 .17.7.1.75-.08.05-.18.05-.18.13 0 .08.2.1.21.32.08.13-.08.17-.08.23.01.06.1.1.1.2.01.1-.08.15-.08.25 0s.14.08.24 0c.1-.08.14-.08.23 0 .1.08.15.06.28-.1.15-.18.15-.18.24.05.08.2.1.21.21.1.14-.15.27-.17.27-.05 0 .13.3.09.36-.05.04-.12.06-.12.16.01.09.12.13.13.22.06.07-.06.2-.1.31-.1a37.33 37.33 0 0 1 1.15 0h.53c.26 0 .48-.02.5-.07.04-.05.15-.07.25-.04.12.03.2 0 .23-.09.03-.07.09-.1.13-.08.04.02.23 0 .42-.04.19-.05.49-.1.66-.13.67-.06 1.42-.2 1.56-.27.08-.04.39-.1.69-.13.3-.03.62-.09.7-.13.09-.04.18-.04.24.01.1.1.64-.05 1.09-.28a1 1 0 0 1 .37-.1c.1 0 .22-.07.28-.14.22-.27.85-.36 1.02-.16zm-22.65.47c.06.17-.2.68-.37.74-.7.22-.16.43 1.09.42 1.21 0 1.48.05 1.35.27-.02.03.02.1.08.15.43.35.03.47-1.49.44-1.51-.04-1.6-.06-1.45-.46.14-.36.02-.45-.34-.26-.15.09-.28.18-.28.22 0 .03-.09.06-.2.06-.1 0-.2.03-.2.07a1 1 0 0 1-.2.32c-.32.37-.5 2.6-.3 3.57.07.36-.04 1.32-.16 1.32-.04 0-.04.04.01.1.05.06.09.4.09.74v1c.07 1.6.03 5.13-.05 5.18-.05.03-.1.18-.12.33-.02.16-.06.28-.1.28-.07 0-.14-.44-.12-.76.02-.26.01-.53-.05-1.36-.12-1.66-.08-5.62.07-5.9.16-.3.2-.66.12-1.1a7.5 7.5 0 0 1-.15-1.71c0-1.15.03-1.44.17-1.55.18-.13.1-.29-.17-.29-.34 0-.48.08-.48.28 0 .1-.06.34-.14.53-.3.68-.5 2.2-.42 2.99 0 .09 0 .3-.03.5-.04.27-.02.36.11.5.2.2.2.26.02.54-.11.17-.13.37-.12 1.1.02 1.52.02 1.59 0 1.87-.02.16 0 .38.06.5.05.16.05.27 0 .37a.45.45 0 0 0-.05.3c.02.08.04.78.05 1.55.04 2.03.1 3.79.17 3.95.03.07.01.13-.04.13s-.08.08-.08.18v.3c-.01.3.04.72.1.76.02.03 0 .14-.04.24-.06.13-.06.3 0 .6.06.25.07.46.02.51-.07.09-.06.18.03.98.03.25.02.43-.03.46-.04.03-.06.2-.03.39.02.19.05 1.94.07 3.9l.08 7.87c.03 2.38.04 4.76.03 5.29 0 .58.02.99.07 1.02.05.03.05.14 0 .33-.07.2-.07.3 0 .37.05.05.06.16.02.26-.03.1-.04.5-.03.89.03.7.04 1.13.03 1.34 0 .05 0 .29.02.52 0 .24 0 .47-.04.52-.03.04-.02.16.02.27.04.11.04.2-.02.23-.08.05-.05.31.07.71a3.1 3.1 0 0 1 0 1.22c-.04.05-.01.17.06.28.07.11.1.21.09.24-.08.07-.1 1.22-.03 1.37.04.08.05.19 0 .24-.08.13-.06.48.1 1.13.08.31.17.74.2.96.07.58.23.63 1.72.6.45 0 .68.08.68.25 0 .22-.22.28-.48.12-.32-.19-.39-.16-.44.18-.07.43-.36.53-1.65.54-1.1 0-1.2.04-1.3.46-.04.12-.1.21-.13.21-.04 0-.07.05-.07.1 0 .06-.14.32-.31.58-.17.26-.37.7-.45.96l-.22.64c-.18.32-.02 1.88.19 1.88.03 0 .11.2.19.46.22.76.43 1.19.64 1.28.1.05.2.13.2.17 0 .15.31.27.44.16.18-.14 1.64.07 1.63.24 0 .16-.18.25-.64.3-.4.05-.52.1-.54.2-.05.25.3.34.8.2 1.02-.29 1.48-.27 1.33.06-.07.16-.12.18-.27.13-.27-.1-1.08.2-1.08.4 0 .03-.09.17-.2.3-.2.24-.24.63-.09.87s.18 1.1.11 3.05c-.02.5 0 .92.04.94.04.03.07.2.06.38-.03.57-.02.61.24.61.33 0 .44-.4.41-1.47 0-.26.03-.52.08-.57.05-.06.06-.15.02-.21a6.8 6.8 0 0 1-.08-1.23l-.05-1.52c-.04-.6.02-.83.2-.83.14 0 .16.04.18.64.01.11.04.25.07.3.04.05.03.1 0 .1-.08 0-.07.98 0 1.1a.1.1 0 0 1-.02.13c-.05.03-.06.1-.02.19.06.11.07.61.02.61-.06 0-.05.66.01.74.05.06.07.2.04.32-.02.12-.01.41.02.64.03.23.03.42 0 .42-.04 0-.05.06-.02.12.02.07 0 .17-.05.23-.1.12-.01.22.23.31.07.03-1.63.05-3.77.06-4.1 0-4.39-.02-3.93-.36.1-.07.23-6.04.18-8.47-.05-2.95-.04-9 .02-9.04.04-.03.04-.1.01-.14a7.53 7.53 0 0 1 .07-2c.06-.1.04-.24-.05-.47-.1-.26-.1-.4-.04-.84.05-.29.06-.66.03-.82a2.5 2.5 0 0 1-.04-.44v-.96l.04-5.08.06-6.13c0-.66-.01-1.24-.04-1.28a.7.7 0 0 1 .01-.32c.04-.12.06-.42.05-.67-.03-.69-.03-1.08.01-2.2s.04-1.24.03-1.45c0-.08.01-.51.04-.96.03-.5.02-.83-.03-.86a.1.1 0 0 1-.03-.14c.03-.04.04-.7.03-1.45a147.31 147.31 0 0 1 0-4.89 133.36 133.36 0 0 1 0-2.36c-.01-.24-.02-.58-.01-.76 0-.33 0-.87-.02-1.69 0-.27-.04-.52-.07-.55a5.66 5.66 0 0 0 .02-1.6s-.03-.5-.04-1.11l-.04-1.24.04-.38c.06-.26.06-.26-.81-.28a4.94 4.94 0 0 1-1.49-.1c-.18-.08-.1-.2.13-.2a3 3 0 0 1 .86-.13 102.04 102.04 0 0 0 1.47-.1c.62-.03.67-.43.07-.54-.25-.05-.75-.44-.75-.59 0-.08-.31-.22-.62-.28-.15-.03-.27-.12-.3-.2-.08-.25-.36-.56-.5-.56-.6 0-1.14-.52-1.14-1.08 0-.77.16-.94.84-.9.54.02.74-.13.48-.4-.13-.12-.25-.14-.87-.1-.4.01-1.2.02-1.77 0a53.22 53.22 0 0 0-2.04-.01l-1.05-.04c-.8-.04-.85-.04-.97.13s-.3.16-.3-.03c0-.14-1.12-.53-1.9-.65a.87.87 0 0 1-.52-.25c-.23-.26-.45-.24-.56.04-.11.3-.09.3-1.7.32l-3.03.06a54.87 54.87 0 0 1-3.16.01 21.78 21.78 0 0 1-1.24 0c-.61.03-4.5-.02-4.54-.06-.67-.7.14-.88 3.86-.88l6.68-.01c2.54-.01 3 0 3.24.11.2.1.37.11.58.06.19-.04.31-.03.35.02.03.05.23.06.5.04.25-.02.52 0 .6.04.08.05.4.1.72.1.3.02.83.06 1.16.1.33.05.87.1 1.2.1.33 0 .74.02.92.03.23.03.34 0 .4-.1.09-.1.12-.1.24-.01.1.07.15.08.21.02.07-.06.13-.06.24 0 .11.07.17.07.24 0 .14-.14.31-.13.31.02 0 .14.04.15.25.03.11-.06.2-.06.26 0 .06.05.13.07.15.04a3.65 3.65 0 0 1 1.32 0c.06.04.14.04.22-.03a.26.26 0 0 1 .26-.04c.08.04.18.06.22.04l.68-.05c1.17-.05 1.7-.1 1.8-.2a.35.35 0 0 1 .27-.03c.08.02.17.01.2-.03.02-.04.24-.07.49-.07.24 0 .49-.04.54-.08.05-.04.28-.1.5-.13l.63-.1c.13-.01.52-.1.87-.2.38-.1.9-.16 1.32-.16.52 0 .74-.04.93-.16.13-.08.32-.15.4-.15a.6.6 0 0 0 .33-.12.61.61 0 0 1 .29-.12.2.2 0 0 0 .17-.12c.06-.15.76-.17.82-.01zm61.97.73c.02.06-.01.29-.07.5-.07.22-.1.43-.08.49.04.12 0 .12-.4.03-.17-.04-.32-.04-.34 0-.03.03-.4.04-.82.01a17.8 17.8 0 0 0-.98-.04l-3.43.05c-1.77.03-3.29.06-3.37.09a.4.4 0 0 1-.3-.04c-.1-.06-.46-.07-1.26-.02-.61.04-1.28.04-1.47.02-.2-.03-.96-.04-1.68-.03a63.4 63.4 0 0 1-2.78.03c-.67 0-.82.08-.82.48 0 .36.4.62.8.51.15-.04 5.67-.15 6.23-.12.54.02 5.32 0 6.92-.02 2.68-.06 3-.05 3.17.04.12.06.15.05.15-.08 0-.09.03-.18.08-.21.12-.07.1.21-.04.6-.07.2-.15.48-.17.63-.02.15-.08.35-.12.44-.05.12-.06.1-.02-.11.04-.24.03-.27-.07-.18-.2.17-2.82.28-5.9.25h-1.08l-5.04.05c-5.66.06-5.23.18-5.11-1.36l.05-.94c-.02-.82.99-1.03 4.5-.96a203.19 203.19 0 0 0 3.54.01l.2.02c.18 0 5.55-.08 7.53-.13 1.06-.02 1.93-.06 1.96-.08.07-.07.17-.04.22.07zm-96.56 2.68c0 .04 2.97.06 6.94.05 8.27-.03 7.43-.14 7.44.98 0 .65.45.6-4.98.63-6.7.03-9.66.08-9.82.14-.14.07-.13-.52.02-1l.16-.53c.1-.3.24-.47.24-.27zm17.67 3.8c.05.07.07.16.04.2-.03.05-.01.09.03.09.1 0 .1 13.27 0 13.4-.06.08-.06.1 0 .1.08 0 .07 1.26-.02 3.8-.01.31 0 .8.03 1.1.03.35.01.58-.05.66-.06.1-.07.23-.01.49.05.25.05.4-.01.47-.07.07-.07.17-.01.31.15.4.05 1.17-.13.99a2.2 2.2 0 0 1-.07-1.12.46.46 0 0 0 .03-.37c-.05-.12-.04-.23.02-.3.07-.08.07-.1 0-.1-.05 0-.09-.15-.1-.34 0-.38-.04-.5-.24-.56-.16-.06-.22-.42-.2-1.14.02-.31-.01-.64-.05-.74-.06-.13-.05-.23.05-.38a.81.81 0 0 0 .13-.35c0-.09.05-.17.1-.2.07-.02.1-.39.12-1.42.02-1.72.02-1.4-.02-2.95l-.07-3.52a37.5 37.5 0 0 0-.1-2.4c-.02-.1-.06-.95-.07-1.88l-.03-1.8c-.03-1.86.18-2.57.63-2.04zm75.82 4.55.54.01a155.01 155.01 0 0 1-.36 1.37l-.16.71-.2.84a102 102 0 0 1-.7 2.95c-.11.46-.2.89-.2.95 0 .1-.03.1-.1-.02-.09-.11-.17-.13-.41-.08-.17.03-.81.07-1.43.08-.62.01-1.28.05-1.46.08-.22.03-.38.02-.45-.04-.08-.06-.24-.07-.58-.01-.59.1-2.43.11-2.43.02 0-.23.53-.3 2.88-.38.73-.02 1.43-.07 1.56-.1.13-.03.35-.04.48-.01.4.07 1.72-.05 1.85-.17.14-.14.2-.76.06-.73-.11.02-1.87.08-3.95.15l-1.75.06c-.23.01-.31-.15-.11-.22.08-.03.5-.07.93-.1.43-.01.92-.06 1.1-.1.18-.04.43-.05.55-.01.12.04.49.03.81 0 .33-.04 1.02-.07 1.55-.08 1.05 0 1.11-.02 1.24-.35.19-.5.14-.55-.46-.5-.85.09-1.42.12-2.54.17l-1.64.08c-1.33.07-3.25.13-4.87.16a46.8 46.8 0 0 0-2.44.08c-.4.01-1.05.05-1.45.08-.93.06-.86.24-.85-2.14.02-2.17.01-2.13.3-1.98.15.09.21.08.36-.02.12-.08.23-.1.35-.06.18.07 1.22.04 2.05-.07a7.8 7.8 0 0 1 1.08-.04c.3.01.8 0 1.12-.05.3-.04 1.1-.09 1.75-.1.66-.03 1.3-.08 1.43-.13.12-.05.83-.1 1.58-.1a8.69 8.69 0 0 0 1.35-.08c0-.03.58-.05 1.29-.06a7.76 7.76 0 0 0 1.67-.12c.07.03.36.06.66.06zm-79.82 3.86c.34.14.4.33.34 1.17-.01.12.02.37.06.56.04.18.05.37.02.42-.03.04-.06.34-.06.65 0 1.1.29 1-3.76 1.1-1 .03-2.79.1-3.95.17a57 57 0 0 1-2.56.11c-.46-.01-3 .06-4.36.13-2.95.15-3.5.14-3.45-.01.07-.26.13-.56.17-.88.04-.28.18-.8.37-1.42.04-.13.07-.3.07-.4 0-.79.14-.84 2.4-.89.98-.02 1.29-.04 2.12-.16.13-.02 1-.06 1.92-.08a67.02 67.02 0 0 0 3.44-.16l2.75-.16c.2-.02 1.16-.06 2.14-.1.98-.04 1.8-.1 1.83-.12.08-.08.15-.07.51.07zm41.97 1.31c.18.1.33.2.34.22l.1.74c.05.48.11.54.54.6.45.06.55.01.84-.46.22-.35.33-.38.4-.1.02.1.15.28.28.4.23.2.27.82.07 1.12a6.1 6.1 0 0 0-.2.54c-.17.54-.27.61-.77.6-.4-.02-.83.2-.76.38.14.37-.45.4-.73.03a.97.97 0 0 0-.34-.23c-.27-.11-.3-.18-.12-.32.2-.17.16-.58-.06-.55-.1.02-.18.08-.18.15 0 .28-.42.38-.57.15-.07-.12-.1-2.94-.04-3.13.07-.17.07-.17.18 0 .15.24.25.23.46-.06.2-.28.15-.27.56-.08zm-22.81.49c.02.04.13.11.23.15.16.06.18.11.16.52-.03.75-.02.78.64.88.34.05.83-.27.95-.62.07-.22.18-.16.31.18.08.19.21.35.33.4.11.06.24.2.28.33.1.26.18.29.33.1a.42.42 0 0 1 .29-.11c.1 0 .2-.04.23-.08.07-.1.73-.1.93 0 .28.16.04 1.14-.3 1.22-.26.05-.59-.12-.59-.3 0-.26-.37-.33-.42-.08a.7.7 0 0 0 .03.32c.08.22.08.6 0 .6-.11 0-.17-.22-.17-.67 0-.66-.14-.76-.55-.38-.28.26-.33.35-.31.57.03.33-.2.47-.74.48-.42 0-.68.19-.81.57-.16.48-.47.66-.47.29 0-.1-.12-.34-.28-.53-.21-.27-.26-.38-.2-.5.18-.33.07-1.07-.16-1.13-.23-.07-.3 1.88-.14 3.72a.9.9 0 0 1-.02.34 1.5 1.5 0 0 0-.02.5 12.12 12.12 0 0 1 .01 1.46 488.45 488.45 0 0 1 .14 5.04c.03.1 0 .2-.05.23-.08.05-.08.13 0 .35.13.4.13.74 0 .98-.09.16-.09.25-.01.47.06.18.08.48.05.86-.03.32-.02.81.03 1.1.05.35.04.54-.01.57-.05.03-.06.15-.02.28.03.13.05.32.05.43V-86c.02 1.24.02 1.21-.04 1.44a4.43 4.43 0 0 0-.01 1.36c.08.13.1 2.96.02 2.96-.04 0-.04.04 0 .1a2 2 0 0 1 .08.58 5.04 5.04 0 0 1-.02 1.34c-.04.29-.03.49.02.55.16.2-.1.94-.3.83-.06-.05-.09-.4-.07-1.23v-1.21c-.06-.1-.07-3.04-.01-3.3.03-.15.03-.34-.01-.41-.04-.07-.09-.85-.1-1.73-.02-.89-.05-1.63-.08-1.66-.03-.02-.02-.08.02-.13s.05-.25.02-.45c-.03-.2-.03-.45 0-.56a26.47 26.47 0 0 1-.05-2.58c0-1.13-.02-2.06-.04-2.06s-.05-2.2-.06-4.87c0-3.07.02-4.88.06-4.88.14 0 .09-.28-.13-.72-.4-.78-.33-1.97.11-2.39.19-.18.34-.39.34-.47 0-.25.4-.38.52-.17zm49.7.64c.02.05.09.07.14.04.04-.03.16-.02.25.03.1.05.34.1.54.1s.5.05.65.12c.16.07.5.13.76.14.48 0 .48 0 .51.26.02.21 0 .26-.13.26-.09 0-.2.07-.27.17-.1.14-.18.16-.67.15a16.62 16.62 0 0 0-2.49.02c-.26.05-.36.03-.46-.07-.1-.1-.2-.11-.4-.08-.15.03-.3.02-.32-.02-.02-.04-.23-.07-.46-.06-.45.02-.74-.17-.66-.44.06-.17-.19-.37-.55-.43-.52-.1-.14-.21.85-.26l.92-.05a7.7 7.7 0 0 1 1.78.12zm-3.95 1.65c.09.12.18.3.21.4.06.18 4.02.22 4.3.05.03-.02.34-.04.68-.04.4 0 .8-.06 1.08-.16.4-.13.67-.15 2.17-.14.94.01 1.75-.01 1.8-.05.07-.03.62-.07 1.25-.08a10.6 10.6 0 0 0 1.3-.07c.13-.04.18-.02.22.1.06.19.28.22.43.07.09-.08.1-.07.06.07l-.17.76c-.1.57-.16.83-.56 2.35-.2.8-.32 1.44-.28 1.67 0 .08-.02.17-.07.2-.1.07-.33.88-.33 1.2 0 .14-.03.25-.06.25-.04 0-.07.07-.08.16 0 .1-.06.33-.13.54a6.16 6.16 0 0 0-.25 1.21l-.14.48-.3 1.2-.24 1.04a3.9 3.9 0 0 0-.1.64c0 .2-.05.39-.1.42-.04.03-.08.08-.08.12a30.04 30.04 0 0 0-.32 1.46c-.08.37-.17.71-.21.76-.04.04-.07.17-.07.29 0 .12-.08.46-.17.76-.1.3-.18.6-.2.67-.12.69-.12.7-.2.44a1 1 0 0 1-.03-.42c.03-.12 0-.2-.12-.28-.08-.05-.16-.17-.16-.26a.9.9 0 0 0-.12-.36 7.38 7.38 0 0 1-.23-.46 1.11 1.11 0 0 0-.33-.39c-.1-.07-.2-.18-.2-.23a.23.23 0 0 0-.1-.18.95.95 0 0 1-.22-.29 1.57 1.57 0 0 0-.37-.43c-.15-.1-.27-.24-.27-.3 0-.04-.17-.22-.38-.4a10 10 0 0 1-.83-.8 3.6 3.6 0 0 0-.78-.64c-.18-.09-.34-.22-.37-.3a.22.22 0 0 0-.2-.14c-.09 0-.22-.07-.3-.16-.07-.08-.18-.16-.23-.16-.06 0-.1-.03-.1-.07 0-.04-.11-.1-.24-.13-.14-.03-.24-.08-.24-.1 0-.04-.21-.16-.47-.28a2.38 2.38 0 0 1-.57-.34.52.52 0 0 0-.33-.12c-.12 0-.36-.09-.53-.2-.34-.24-.62-.23-.62 0 0 .12.1.2.38.3.21.06.43.16.48.21.05.05.14.1.2.1.14 0 .74.38.74.48 0 .26-.7.05-1.15-.34a.96.96 0 0 0-.4-.17 24.1 24.1 0 0 1-.52-.1c-.25-.05-.26-.04-.24.13.02.13.09.2.2.22.1.01.22.07.27.14.05.06.22.11.37.11s.27.03.27.07c0 .2.64.73.89.73.32 0 .79.42.79.7 0 .14.04.18.19.18.22 0 .28.11.41.7.08.35-.17.37-.3.02-.09-.26-.08-.26-.26-.19-.13.05-.17.35-.04.35.04 0 .08.09.08.2 0 .2.18.31.4.24.22-.07.2.03-.04.22-.16.12-.2.23-.2.5 0 .37-.08.48-.42.56-.12.03-.22.09-.22.13 0 .04-.06.07-.13.07s-.27.07-.45.16c-.2.1-.5.16-.72.16-.2 0-.38.04-.38.08s-.05.08-.1.08a.93.93 0 0 0-.3.1c-.54.28-1.1-.25-.9-.86.05-.11.03-.59-.02-.92a5.15 5.15 0 0 1 .04-2.6.98.98 0 0 0 .04-.48.8.8 0 0 1 .08-.47c.15-.28.15-.4 0-.53-.2-.17-.14-.3.16-.33.31-.03.38-.17.1-.21-.35-.06-.36-.15-.36-2.89 0-1.43-.01-2.64-.02-2.68-.13-.6 0-.83.46-.84.54-.01 3.02-.15 3.54-.2.68-.07 1.48-.12 2.55-.16 1.45-.06 4.47-.2 4.72-.24l1.52-.16c.12 0 .27-.42.2-.54-.03-.04-.1-.03-.15.01a.43.43 0 0 1-.25.07c-.57-.01-3.65.1-3.72.14-.1.06-.74.11-1.88.15a28.02 28.02 0 0 1-3.04.16c-1.1.02-2.23.08-2.51.12-1.44.23-1.67.13-1.72-.7-.02-.26-.05-.6-.08-.76-.04-.2-.03-.3.03-.3.05 0 .09-.05.09-.11 0-.07-.04-.12-.08-.12-.05 0-.08-.06-.08-.12 0-.2.22-.14.38.1zm-23.43 2.94a154.8 154.8 0 0 1 .03 3.6c0 1.71 0 2.3.04 2.8.05.64.05.73.02 1.31v1.24a47.86 47.86 0 0 1 .01 2.48c-.02.73-.01 1.4 0 2.1.07 2.15-.04 3.28-.29 3.03-.1-.09-.2-6.13-.1-6.25a44.63 44.63 0 0 1-.08-5.72c.04 0 .05-.04.02-.1a.5.5 0 0 1-.04-.27c.01-.1-.01-.19-.05-.22-.04-.02-.06-.2-.04-.38a9.5 9.5 0 0 0-.04-2.03c-.05-.08-.05-.26 0-.46.1-.4.09-.94-.01-1.2-.04-.1-.05-.23 0-.3a.75.75 0 0 0 .02-.35c-.08-.4-.03-.87.11-1.08.25-.38.37.15.4 1.8zm5 1.22c.1.1.14 3.04.04 3.1a.07.07 0 0 0-.03.1c.02.04.06.33.1.66.02.33.08.67.11.76.04.1.02.36-.04.63-.07.27-.1.72-.08 1.11.08 1.52.1 2.68.06 2.73-.05.05-.04.63.02.93.02.08 0 .17-.05.2-.04.02-.01.18.06.36.09.22.11.42.07.65-.06.32-.07.6-.03.92.02.25-.04.86-.1.9-.04.02 0 .16.06.3.1.18.1.34.06.56-.03.16-.05.33-.03.38.14.47.06 4.32-.1 4.49-.17.19-.68.37-.93.33-.2-.02-.47.09-.52.22-.06.16-.45.15-.57-.02-.12-.16-.97-.29-1.17-.18-.62.33-.79-.09-.78-2.04 0-1.2-.01-3.14-.04-5.16l-.04-3.64v-1.56l-.05-3.39c-.02-1.92 0-3.3.03-3.36.1-.12 3.82-.1 3.94.02zM734.4-98c.03.06.06 1.09.06 2.3 0 1.2 0 2.2.03 2.2s.03.36.02.81a79.78 79.78 0 0 0-.02 4.18l.03 2.41a25 25 0 0 0 .1 2.23c.05.07.06.27.03.44-.03.16-.04 1.2-.03 2.29.12 7.96.14 7.82-.65 7.84-.94.01-1.57.02-1.72.01-.07 0-.43.02-.81.06-.9.07-.85.38-.86-4.6v-1.28l-.04-1.32c-.03-.95-.06-4.2-.04-4.84.02-.61-.1-10.47-.13-11.53-.05-1.45-.32-1.3 2.38-1.3 1.2 0 1.6.02 1.65.1zm-22.81 3.32c0 .71.02 1.44.05 1.62.05.33.05.33-.48.43l-.86.16c-.32.07-1.18.4-1.56.6-.1.05-.3.13-.42.15-.25.06-.88.43-.92.54-.02.04-.1.07-.18.07-.2 0-.7.28-.96.53-.11.1-.23.2-.27.2-.04 0-.24.14-.45.33-.66.6-1.1.94-1.19.94-.05 0-.08.06-.08.13 0 .18-.42.7-.68.83-.11.06-.2.16-.2.21 0 .06-.04.11-.08.11-.05 0-.08.05-.08.12 0 .07-.11.22-.24.33-.14.12-.24.28-.24.36 0 .08-.1.23-.2.32-.11.1-.2.22-.2.28 0 .06-.1.2-.2.3-.1.1-.22.3-.25.42a.66.66 0 0 1-.2.33.36.36 0 0 0-.15.26c0 .08-.04.17-.08.2-.05.03-.08.11-.08.2 0 .07-.08.19-.17.25a.48.48 0 0 0-.18.3c-.01.12-.1.37-.19.57-.1.2-.2.47-.22.6-.03.13-.1.35-.17.48-.05.13-.12.34-.14.45-.02.12-.08.29-.13.37-.04.1-.08.3-.08.45 0 .15-.03.3-.07.32-.04.02-.1.18-.13.35-.03.16-.1.34-.14.4a.23.23 0 0 0-.04.2c.1.27-.49.46-1.45.46-.51 0-.54 0-.87.32-.34.31-.35.32-1 .32-.7.01-1.43.04-2.5.11-1.09.07-3.04.12-4.98.13-1.03 0-1.86.04-1.86.08s-.03.07-.07.07c-.04 0-.02-.18.03-.41a269.34 269.34 0 0 0 1.25-5.22c.09-.56.26-1.22.33-1.29.04-.03.06-.18.06-.33 0-.15.1-.57.2-.93.1-.36.22-.8.24-.97.03-.18.12-.55.21-.84.09-.29.2-.72.23-.96.07-.43.23-1.17.6-2.64l.36-1.48c.23-.98.33-1.02 2.4-1.11a64.2 64.2 0 0 0 4.16-.36c.24-.03.9-.07 1.48-.08.57 0 1.18-.04 1.36-.08.17-.03.68-.07 1.11-.08a7 7 0 0 0 1.12-.08c.18-.04 1.19-.12 2.24-.16a38.9 38.9 0 0 0 4.04-.34c.38-.04 1.17-.1 1.76-.12.6-.02 1.1-.05 1.1-.06.24-.24.32.08.31 1.34zM714.98-78c0 .05.05.08.11.08.13 0 .37.34.37.51 0 .07-.06.1-.2.08-.23-.05-.57.16-.63.4-.02.1-.16.24-.3.32-.25.13-.56.18-2.19.38-.35.04-.78.1-.96.11-1.31.17-1.96.21-3.25.21-.8 0-1.77.04-2.13.09-.76.1-1.02.02-1.1-.32-.1-.4.12-.46 2.2-.46a45.36 45.36 0 0 0 3.56-.15c.4-.03.83-.1.96-.15a7.63 7.63 0 0 1 2.26 0c.57.07.58.07.58-.11 0-.16-.04-.19-.26-.19-.35 0-.57-.16-.5-.37.05-.17.35-.35.6-.35.08 0 .17-.03.2-.08.03-.04.2-.08.36-.08.18 0 .32.04.32.08zm47.15 1.1c.14.17.26.36.26.43 0 .06.07.2.14.32a1 1 0 0 1 .16.4l.12.93c.08.67.08.79-.06 1.2l-.16.54a.9.9 0 0 1-.1.26c-.05.1-.1.22-.1.28 0 .06-.12.22-.27.37-.15.14-.3.32-.32.4-.08.23-.32.34-.6.24-.19-.07-.4-.05-.92.05-1.36.27-1.38-.07-.04-.7l.4-.22c.1-.08.31-.16.45-.2.5-.1.56-.5.06-.4a2.4 2.4 0 0 0-.63.24c-.2.11-.42.2-.48.2s-.24.07-.39.16c-.15.1-.53.21-.84.27-.32.06-.62.15-.67.2-.35.27-2.98.36-3.06.1-.03-.1-.1-.17-.16-.17-.3 0-1.31-.87-1.32-1.12 0-.36 2.32-1.35 2.67-1.14.03.02.1 0 .12-.05.04-.05.37-.16.74-.23.36-.08.7-.16.75-.2.21-.13.8-.14 1.04-.02.56.29 1.06-.1 1.21-.95a.6.6 0 0 1 .1-.24c.03-.05.08-.24.1-.43.03-.2.12-.42.22-.5.1-.1.17-.2.17-.24 0-.26 1.15-.07 1.41.22zm-66.18.71c.2.03.5.05.67.06.66.04.55.48-.14.57-.81.1-3.22.18-3.34.12-.07-.04-.15-.05-.18-.01-.04.03-.45.06-.91.07l-2.1.06c-3.84.12-3.77.12-3.72-.06l.04-.26c0-.05.52-.09 1.34-.1.74-.01 1.4-.04 1.46-.06.15-.04 1.1-.12 1.97-.16.36-.01.79-.06.96-.1.17-.05.56-.07.87-.06.31 0 .87-.02 1.24-.08a6.08 6.08 0 0 1 1.84.01zm20.6.31c.14.11.28.3.3.44l.2.54c.55 1.12.3 3.13-.48 3.83-.08.07-.15.2-.15.27 0 .3-.29.42-1.09.46-.73.03-.76.02-.68-.12.1-.19.44-.42.6-.42.07 0 .13-.03.13-.07 0-.07.51-.3.76-.35.1-.01.16-.08.16-.18 0-.2-.3-.25-.6-.12-.65.3-.88.37-2.28.7l-1.16.26a5.2 5.2 0 0 1-2.36.16c-.11-.04-.86-.1-1.66-.13a50.7 50.7 0 0 1-2.96-.15c-.63-.06-.7-.02-.74.4-.04.38-.08.44-.36.44-.45 0-.53-.1-.6-.72-.03-.38-.09-.59-.17-.62-.18-.07-.21.03-.22.64 0 .6-.1.75-.29.42-.1-.21-.1-.21-1.67-.17l-1.89.05c-.32 0-.8.26-.71.4.06.1-.17.25-.32.2-.35-.14-.81-1.65-.58-1.9.12-.11.42-.66.5-.89.07-.23.23-.1.3.25.07.33.5.55.77.38.08-.04 1.87-.16 2.2-.13.19 0 .71 0 .99-.02.22-.01.33-.17.34-.46 0-.2.12-.37.2-.28.03.02.07.24.1.49.06.6.41.7.53.13.03-.13.13-.3.21-.37.14-.13.16-.26.16-1.39 0-1.3.05-1.56.27-1.37.1.08.13.29.13 1.07 0 1.74 0 1.75 1.2 1.64a11.4 11.4 0 0 1 1.77-.06c.82.03 2.34-.1 2.53-.2.12-.07.41-.14.66-.17.28-.03.51-.1.62-.2a.59.59 0 0 1 .35-.16c.25 0 .94-.21 1.09-.34.08-.07.42-.1 1.06-.1.92 0 1.51-.28 1.51-.72 0-.03.05-.1.12-.15.07-.05.2-.34.32-.64.27-.8.45-.9.89-.57zm-19.56 3.96c.1.1.16.28.17.46l.03.64c.03.39-.16.52-.45.3-.12-.07-.22-.09-.3-.04-.08.04-1.63.1-3.45.12a27.05 27.05 0 0 0-4.15.21c-.14-.07-.34-.06-.95.02-.3.05-.46.04-.54-.03-.07-.06-.2-.08-.33-.04s-.54.06-.93.05c-.38 0-.77.02-.86.07-.12.06-.15.06-.15-.02 0-.16.3-1.47.31-1.36 0 .07.07.09.19.06.19-.04.7-.08 2.3-.16 3.08-.15 4.23-.21 4.6-.24.21-.01 1.2-.05 2.18-.07 1-.03 1.82-.07 1.84-.09.09-.09.34-.03.49.12zm63.12 1.9c-.03.2-.06.43-.05.5.05 1.05.04 1.13-.25 1.38-.25.21-.21.46.1.72.13.11.16.22.16.64 0 .27.02.8.05 1.18.07.76.07.87.05 1.56-.04 1.94.09 7.21.18 7.41.13.25.2.23-1.14.24-.65 0-.73-.03-.56-.24.2-.22.21-.36.1-.65-.07-.17-.09-.3-.04-.36a5 5 0 0 0 .04-1.2c-.02-.6-.01-1.14.02-1.19.1-.16.1-.47-.02-.68a.62.62 0 0 1-.06-.37c.1-.43.12-.6.04-.74-.06-.12-.05-.22.03-.38.15-.29.15-.44-.01-.5-.12-.04-.12-.05 0-.12.15-.09.09-.7-.1-.83-.08-.06-.08-.13-.02-.3.11-.29.12-1.4.02-1.66a2.96 2.96 0 0 1 0-1.03v-.52c0-.27.04-.54.07-.61.04-.07.03-.26-.01-.43-.06-.19-.06-.32 0-.39.05-.06.04-.22-.01-.47-.1-.4.16-.86.47-.86.05 0 .16-.06.24-.14.46-.47.78-.45.7.04zm-20.48.16c.07.08.19.29.26.46l.23.56a4.55 4.55 0 0 1 .1 3.2c-.04.22-.14.48-.23.59a.74.74 0 0 0-.15.28c0 .12-.28.45-.39.45-.04 0-.08.03-.08.07 0 .18-.3.24-.55.12-.22-.11-.28-.11-.63.01-.77.28-1.1-.03-.42-.4.22-.12.4-.24.4-.27 0-.07.4-.25.56-.25.08 0 .18-.06.24-.12a.36.36 0 0 1 .24-.12c.14 0 .24-.15.24-.37 0-.18-.39-.13-.68.09-.14.1-.3.2-.35.2-.19 0-.93.26-1.06.37a.7.7 0 0 1-.38.1c-.15 0-.27.06-.3.12-.03.07-.16.11-.34.11-.16 0-.71.06-1.23.14-1.13.16-1.7.12-2-.17-.12-.1-.28-.2-.36-.2a.36.36 0 0 1-.26-.15.87.87 0 0 0-.37-.25c-.25-.08-.59-.51-.59-.74 0-.22.47-.37 1.14-.37.11 0 .23-.04.26-.08.03-.05.24-.08.48-.08s.45-.04.48-.08c.03-.05.12-.08.2-.08.09 0 .16-.03.16-.07 0-.04.28-.17.62-.29.34-.12.65-.25.7-.29a.35.35 0 0 1 .2-.07c.08 0 .23-.1.35-.2.25-.23.29-.24.3-.1 0 .11.47.44.74.5.25.07.46-.2.68-.88.1-.3.22-.6.26-.64.04-.04.07-.2.07-.34 0-.7 1.03-1.23 1.46-.76zm16.32-.06c1.47 0 1.31-.49 1.36 4.1.03 2.14.08 3.98.12 4.08.04.11.06.22.04.24-.13.13-.14.36-.08 1.65.06 1.09.06 2.02 0 2.07-.02.02 0 .08.05.14.1.11.02.8-.1.88-.16.1-.06.34.16.37.12.01-.75.02-1.94.01-1.8 0-2.16-.02-2.13-.12a204.95 204.95 0 0 0-.06-8.94c.04-.09.03-.33 0-.54a2.78 2.78 0 0 1 0-.85c.04-.26.05-.53.02-.6a8.4 8.4 0 0 1-.07-1.19c-.03-1.24-.03-1.25.74-1.27.28-.01.54-.04.56-.06a9.77 9.77 0 0 0 1.33.04zm-49.43.25c.22.09.22.09.02.35-.15.2-.17.27-.1.3.07.03.04.07-.08.1-.1.03-.18.1-.18.13 0 .04-.03.05-.08.03-.17-.1-.4.2-.35.47.02.14.06.8.07 1.49.02.68.07 1.44.13 1.69.17.73-.17 1.04-.84.79-.42-.16-.71-.76-.44-.92.12-.08.1-.73-.04-.84a.21.21 0 0 1-.06-.25c.04-.1.04-.37.01-.62s-.02-.51.02-.58c.03-.08.04-.37.02-.66-.03-.33 0-.6.05-.7.05-.1.1-.27.1-.4a.8.8 0 0 1 .08-.28c.15-.15 1.35-.22 1.67-.1zm45.68.15c.03.05.07.67.09 1.38a515.8 515.8 0 0 1 .3 11.17c-.01.3-.06.56-.1.57-.32.04-.96.03-.83-.02.33-.12.38-.4.34-1.75v-.76a18 18 0 0 0-.04-1.33c-.03-.56-.03-.94.02-.97.04-.03.04-.28-.02-.66a2.3 2.3 0 0 1-.02-.9c.04-.15.05-.4.02-.57-.06-.25-.14-2.53-.11-2.92v-1.74c-.02-1.6.06-1.96.35-1.5zm-40.06.96c.12.13.14.28.12.86-.01.38-.02.88-.01 1.1l.05 1.56c.03 1.24.05 2.58.04 2.84 0 .08.01.62.04 1.2a27.68 27.68 0 0 1 .03 1.95v.56c0 .46 0 .61.03.96l.05.66c0 .32.04.38.2.4.09.02-.39.04-1.07.05-.68 0-1.28-.02-1.32-.05a39.2 39.2 0 0 1-.13-3.94c.06-2.86-.03-4.58-.27-5-.74-1.26-.33-3.21.68-3.25l1.05-.04c.28-.01.4.02.51.14zm-17.4.35c.04.03.1.02.13-.03.06-.1 2.58-.1 2.64 0 .08.14.66.25.83.16.11-.06.22-.04.4.05.14.07.4.14.58.17.4.05.39 0 .41 1.41.02 1.18.02 1.18-.2 1.41-.19.2-.22.3-.23.7-.04 3.44.02 7.49.1 7.54.65.4.84.4-8.74.4-8.87 0-8.87 0-8.82-.23.12-.56.47-2.04.64-2.67.1-.38.23-.93.27-1.21.05-.28.14-.65.2-.83.06-.17.13-.47.16-.67.06-.36.35-1.5.4-1.6.02-.02.06-.2.08-.4.03-.2.08-.48.12-.63.13-.44.54-2.13.68-2.8.11-.5-.13-.46 3.52-.48.66 0 1.49-.05 1.84-.11.38-.07.7-.09.81-.05.1.04.2.05.22.03a11 11 0 0 1 1.26-.08c.68-.02 1.43-.07 1.67-.1.5-.07.9-.06 1.02.02zm11.1 4.78c.15.15.12.37-.06.47-.18.1-.2.24-.04.24.26 0 .44 1.97.37 4.11-.06 1.61-.05 1.76.11 1.86.1.05.12.1.06.1-.05 0-.1.06-.1.12 0 .1-.12.12-.65.12-.64 0-.65 0-.5-.16.2-.22.29-3.35.1-3.57-.05-.06-.04-.1.01-.14.05-.03.09-.4.09-.83.01-1.13.03-1.35.1-1.42.18-.19.04-.27-.37-.23-.49.06-.77-.05-.77-.29 0-.12.05-.15.24-.15.14 0 .32-.05.42-.1.38-.2.86-.26 1-.13zm31.06.15c.16.17.16.17-.02.36-.2.22-.2.22.4.2.4-.02.43 0 .37.13-.06.12-.06 2.5-.02 4.74.01.89-.01 1.04-.19 1.04-.34 0-.13.28.25.33.36.05.36.05-.08.07-.92.06-1.48-.03-1.4-.22.04-.08.07-1.36.08-2.85.02-2.04.05-2.76.13-2.9.13-.25-.01-.38-.5-.46a1.36 1.36 0 0 1-.53-.2c-.11-.1-.24-.14-.29-.11-.05.03-.06.02-.03-.02.27-.3 1.56-.37 1.83-.1zm-5.22.45c.03.2.24.27.73.22l1.08-.07c.4 0 .85-.04 1-.07.5-.1.5-.08.46 1.18v1.24a61 61 0 0 1 .02 1.2c-.03 1.16.05 2.58.16 2.64.12.08-2.38.14-3.65.1-.64-.02-.99-.23-.62-.37.09-.03.1-.56.07-2.97-.03-2.92-.03-2.92.16-3 .11-.04.2-.13.2-.2 0-.2.36-.11.39.1z" transform="translate(-177.23 49.66) scale(.26458)"/><path d="m0 0-27.52-119.22" fill="none" stroke="currentcolor" stroke-width=".37" transform="matrix(.35278 0 0 -.35278 9.77 .01)" clip-path="url(#a)"/><text xml:space="preserve" transform="translate(2.15 38.58) scale(.35278)" clip-path="url(#b)"><tspan fill="currentcolor" style="font-style:italic;font-weight:300;font-size:10.4105px;font-family:'Helvetica Neue';" x="0 8.8697462 16.198738 22.757353 25.068483 31.814487 37.987915 43.963543 50.709545 56.685173 58.996304" y="0">MUSIKVEREIN</tspan><tspan fill="currentcolor" style="font-style:italic;font-weight:300;font-size:10.4105px;font-family:'Helvetica Neue';" x="-2.352773 3.4354651 9.2237034 15.011941" y="9.71">6463</tspan></text><text xml:space="preserve" transform="translate(10.61 42) scale(.35278)" clip-path="url(#c)"><tspan fill="currentcolor" style="font-style:italic;font-weight:300;font-size:10.4105px;font-family:'Helvetica Neue';" x="0 6.9438033 14.272796 21.018799 28.732981 34.323418 40.299046" y="0">BURGLEN</tspan><tspan fill="currentcolor" style="font-style:italic;font-weight:300;font-size:10.4105px;font-family:'Helvetica Neue';" x="10.41" y="-6.39">.</tspan></text></svg>